<?xml version="1.0" encoding="utf-8"?>
<!-- Generator: Adobe Illustrator 24.2.1, SVG Export Plug-In . SVG Version: 6.00 Build 0)  -->
<svg version="1.1" id="Layer_1" xmlns="http://www.w3.org/2000/svg" xmlns:xlink="http://www.w3.org/1999/xlink" x="0px" y="0px"
	 viewBox="0 0 1123.9 320" style="enable-background:new 0 0 1123.9 320;" xml:space="preserve">
<style type="text/css">
	.st0{fill:#FFFFFF;}
	.st1{fill:none;}
</style>
<g>
	<g>
		<path class="st0" d="M164.5,64.9L164.5,64.9l-20.1,0V34.2c0-14.7-14.6-26.5-29.3-26.5v32.7v127.9h29.3v-62.8V93.6H164V118v50.3
			h26.5V91.4C190.5,77,178.9,65.2,164.5,64.9"/>
		<path class="st0" d="M229.5,64.9v-0.1h18.6V36h-18.6v-2.1c0-14.7-14.6-26.5-29.3-26.5v26.1l0-2V36h-9.8v28.8h9.8v0.1v76.4
			c0,14.7,11.9,26.5,26.5,26.5H248v-29.2h-18.5v-27.9V64.9z"/>
		<path class="st0" d="M34.2,93.7l26.1,0l0,74.2l0,27.3c14.7,0,29.3-11.9,29.3-26.5c0-0.1,0-4,0-3.9l-0.1-71.1h20.1V64.9H89.7V36.4
			h20.1V7.7H86.2v0C72,8.3,60.4,20,60.4,34.3v30.6l-26.4,0h-0.5c3.8,3.8,6.2,9,6.2,14.8C39.7,85,37.6,90,34.2,93.7L34.2,93.7z"/>
		<path class="st0" d="M36,91.4c-3.8,4.1-9.2,6.7-15.3,6.7c-5.4,0-10.3-2.1-14-5.5l0,25v20.7c0,14.7,13.1,29.4,29.3,29.4v-25.1v-25
			L36,91.4L36,91.4z"/>
		<path class="st0" d="M35.8,79.7c0,8-6.5,14.4-14.4,14.4S7,87.6,7,79.7c0-8,6.5-14.4,14.4-14.4S35.8,71.7,35.8,79.7"/>
	</g>
	<g>
		<path class="st0" d="M61.5,233.8v-24.1h4.9v24.1H61.5z"/>
		<path class="st0" d="M75.6,209.6l5.9,16.5h0.1v-16.5H86v24.1h-5.5l-6-16.9h-0.1v16.9H70v-24.1H75.6z"/>
		<path class="st0" d="M93.3,226.2v0.7c0,2.3,0.6,3.7,3.2,3.7c1.5,0,2.9-0.9,2.9-3c0-2.2-1.1-3-4.3-4.1c-4.3-1.5-6.3-3.3-6.3-7.3
			c0-4.7,2.8-7.1,7.5-7.1c4.3,0,7.5,1.9,7.5,6.5v0.7h-4.7c0-2.3-0.7-3.6-2.6-3.6c-2.2,0-2.8,1.4-2.8,2.8c0,1.5,0.4,2.4,2.5,3.3
			l3.8,1.6c3.7,1.6,4.6,3.4,4.6,6.4c0,5.1-3.1,7.4-8.4,7.4c-5.5,0-7.7-2.6-7.7-7v-1H93.3z"/>
		<path class="st0" d="M121.1,209.6v4h-5.3v20.2h-4.9v-20.2h-5.3v-4H121.1z"/>
		<path class="st0" d="M123.4,233.8v-24.1h4.9v24.1H123.4z"/>
		<path class="st0" d="M146,209.6v4h-5.3v20.2h-4.9v-20.2h-5.3v-4H146z"/>
		<path class="st0" d="M152.7,209.6v16.8c0,2.4,0.5,4.2,2.8,4.2c2.3,0,2.8-1.8,2.8-4.2v-16.8h4.9v16.8c0,6.1-3.8,7.8-7.7,7.8
			c-4,0-7.7-1.3-7.7-7.8v-16.8H152.7z"/>
		<path class="st0" d="M180.5,209.6v4h-5.3v20.2h-4.9v-20.2H165v-4H180.5z"/>
		<path class="st0" d="M190.3,209.2c7.3,0,8.2,5.2,8.2,12.5c0,7.3-0.9,12.5-8.2,12.5c-7.3,0-8.2-5.2-8.2-12.5
			C182.1,214.4,183,209.2,190.3,209.2z M190.3,230.7c2.9,0,3.3-2.5,3.3-9c0-6.5-0.5-9-3.3-9c-2.9,0-3.3,2.5-3.3,9
			C186.9,228.2,187.4,230.7,190.3,230.7z"/>
		<path class="st0" d="M209.6,209.6h7.2l3.5,17h0.1l3.5-17h7.2v24.1h-4.5v-19.3h-0.1l-4.3,19.3h-3.8l-4.3-19.3H214v19.3h-4.5V209.6z
			"/>
		<path class="st0" d="M239.1,209.6v16.8c0,2.4,0.5,4.2,2.8,4.2c2.3,0,2.8-1.8,2.8-4.2v-16.8h4.9v16.8c0,6.1-3.8,7.8-7.7,7.8
			c-4,0-7.7-1.3-7.7-7.8v-16.8H239.1z"/>
		<path class="st0" d="M252.7,233.8v-24.1h4.9v20.2h8.6v4H252.7z"/>
		<path class="st0" d="M279.3,209.6v4H274v20.2h-4.9v-20.2h-5.3v-4H279.3z"/>
		<path class="st0" d="M281.6,233.8v-24.1h4.9v24.1H281.6z"/>
		<path class="st0" d="M290.4,209.6h8c6.7,0,8,4.6,8,11.7c0,8.5-1.8,12.4-8.3,12.4h-7.7V209.6z M295.2,230.2h2.2
			c3.4,0,4.1-2.1,4.1-8.7c0-5.5-0.5-8.3-4.2-8.3h-2.1V230.2z"/>
		<path class="st0" d="M309.8,233.8v-24.1h4.9v24.1H309.8z"/>
		<path class="st0" d="M322.2,226.2v0.7c0,2.3,0.6,3.7,3.2,3.7c1.5,0,2.9-0.9,2.9-3c0-2.2-1.1-3-4.3-4.1c-4.3-1.5-6.3-3.3-6.3-7.3
			c0-4.7,2.8-7.1,7.5-7.1c4.3,0,7.5,1.9,7.5,6.5v0.7h-4.7c0-2.3-0.7-3.6-2.6-3.6c-2.2,0-2.8,1.4-2.8,2.8c0,1.5,0.4,2.4,2.5,3.3
			l3.8,1.6c3.7,1.6,4.6,3.4,4.6,6.4c0,5.1-3.1,7.4-8.4,7.4c-5.5,0-7.7-2.6-7.7-7v-1H322.2z"/>
		<path class="st0" d="M346.1,217.8c0-3.5-0.7-5-2.9-5c-2.4,0-3,2.4-3,9.3c0,7.3,1,8.6,3.1,8.6c1.7,0,3-0.9,3-6.1h4.9
			c0,5.2-1.3,9.7-7.7,9.7c-7.3,0-8.2-5.2-8.2-12.5c0-7.3,0.9-12.5,8.2-12.5c7,0,7.5,5.1,7.5,8.6H346.1z"/>
		<path class="st0" d="M354.2,233.8v-24.1h4.9v24.1H354.2z"/>
		<path class="st0" d="M362.7,209.6h8.5c5,0,6.6,3.6,6.6,7.2c0,5-3.1,7.3-7.7,7.3h-2.6v9.6h-4.9V209.6z M367.6,220.6h2.2
			c1.9,0,3.2-1.1,3.2-3.6c0-2.4-0.9-3.7-3.4-3.7h-2V220.6z"/>
		<path class="st0" d="M380.3,233.8v-24.1h4.9v20.2h8.6v4H380.3z"/>
		<path class="st0" d="M396.2,233.8v-24.1h4.9v24.1H396.2z"/>
		<path class="st0" d="M410.3,209.6l5.9,16.5h0.1v-16.5h4.5v24.1h-5.5l-6-16.9h-0.1v16.9h-4.5v-24.1H410.3z"/>
		<path class="st0" d="M428.8,209.6h6l6.4,24.1h-5.1l-1.1-5.1h-6.4l-1.1,5.1h-5.1L428.8,209.6z M429.4,224.7h4.7l-2.3-10.9h-0.1
			L429.4,224.7z"/>
		<path class="st0" d="M442.9,209.6h9c4,0,6.4,2.1,6.4,6.2c0,3.2-1.3,5.4-4,6v0.1c3.3,0.4,3.8,2.3,3.9,7.4c0,2.6,0.2,3.8,1.1,4.3
			v0.2H454c-0.5-0.7-0.6-1.6-0.6-2.5l-0.1-4.6c-0.1-1.9-0.9-3-2.9-3h-2.6v10.2h-4.9V209.6z M447.7,220.2h2c2.3,0,3.7-1,3.7-3.6
			c0-2.2-1.1-3.3-3.4-3.3h-2.3V220.2z"/>
		<path class="st0" d="M61.5,248.8h8c6.7,0,8,4.6,8,11.7c0,8.5-1.8,12.4-8.3,12.4h-7.7V248.8z M66.4,269.4h2.2
			c3.4,0,4.1-2.1,4.1-8.7c0-5.5-0.5-8.3-4.2-8.3h-2.1V269.4z"/>
		<path class="st0" d="M94.2,248.8v4h-8.6v5.7h8.1v4h-8.1v6.5h9v4H80.7v-24.1H94.2z"/>
		<path class="st0" d="M105,248.8h13.5v4h-8.6v5.7h8.1v4h-8.1V273H105V248.8z"/>
		<path class="st0" d="M128.4,248.3c7.3,0,8.2,5.2,8.2,12.5c0,7.3-0.9,12.5-8.2,12.5c-7.3,0-8.2-5.2-8.2-12.5
			C120.2,253.6,121.1,248.3,128.4,248.3z M128.4,269.9c2.9,0,3.3-2.5,3.3-9c0-6.5-0.5-9-3.3-9c-2.9,0-3.3,2.5-3.3,9
			C125.1,267.4,125.5,269.9,128.4,269.9z"/>
		<path class="st0" d="M139.5,248.8h9c4,0,6.4,2.1,6.4,6.2c0,3.2-1.3,5.4-4,6v0.1c3.3,0.4,3.8,2.3,3.9,7.4c0,2.6,0.2,3.8,1.1,4.3
			v0.2h-5.3c-0.5-0.7-0.6-1.6-0.6-2.5l-0.1-4.6c-0.1-1.9-0.9-3-2.9-3h-2.6V273h-4.9V248.8z M144.4,259.4h2c2.3,0,3.7-1,3.7-3.6
			c0-2.2-1.1-3.3-3.4-3.3h-2.3V259.4z"/>
		<path class="st0" d="M158.4,248.8h7.2l3.4,17h0.1l3.5-17h7.2V273h-4.5v-19.3h-0.1L171,273h-3.8l-4.3-19.3h-0.1V273h-4.5V248.8z"/>
		<path class="st0" d="M188,248.8h6l6.4,24.1h-5.1l-1.1-5.1h-6.4l-1.1,5.1h-5.1L188,248.8z M188.7,263.9h4.7l-2.3-10.9H191
			L188.7,263.9z"/>
		<path class="st0" d="M212.5,257c0-3.5-0.7-5-2.9-5c-2.4,0-3,2.4-3,9.3c0,7.3,1,8.6,3.1,8.6c1.7,0,3-0.9,3-6.1h4.9
			c0,4-0.7,7.4-3.8,8.9c-0.9,0.4-2,0.7-3.3,0.8l-1,1.5c0.4-0.1,0.7-0.2,1.1-0.2c1.5,0,2.9,0.8,2.8,2.4c0,2-1.5,3.1-4.3,3.1
			c-1.5,0-2.8-0.3-3.4-0.6l0.6-1.6c0.5,0.3,1.5,0.5,2.3,0.5c0.9,0,1.7-0.4,1.7-1.1c0-0.7-0.6-1-1.5-1.1c-0.5,0-0.8,0.1-1.1,0.2
			l-0.7-0.7l1.7-2.6c-1.3-0.1-2.4-0.4-3.2-0.8c-3.3-1.9-3.9-6.1-3.9-11.6c0-7.3,0.9-12.5,8.2-12.5c7,0,7.5,5.1,7.5,8.6H212.5z"/>
		<path class="st0" d="M225,248.8h6l6.4,24.1h-5.1l-1.1-5.1h-6.4l-1.1,5.1h-5.1L225,248.8z M222.7,247.1c0.4-2.7,1.4-4.2,3.1-4.2
			c0.6,0,1.1,0.1,1.5,0.2l1.6,0.7c0.3,0.1,0.7,0.2,1,0.2c0.6,0,0.9-0.8,0.9-1.2h2.4c-0.2,2.4-1.4,4.2-3.1,4.2c-1.4,0-2.9-1.1-4-1.1
			c-0.6,0-0.9,0.4-1.1,1.2H222.7z M225.6,263.9h4.7L228,253H228L225.6,263.9z"/>
		<path class="st0" d="M246.8,248.3c7.3,0,8.2,5.2,8.2,12.5c0,7.3-0.9,12.5-8.2,12.5c-7.3,0-8.2-5.2-8.2-12.5
			C238.6,253.6,239.5,248.3,246.8,248.3z M246.8,269.9c2.9,0,3.3-2.5,3.3-9c0-6.5-0.5-9-3.3-9c-2.9,0-3.3,2.5-3.3,9
			C243.5,267.4,243.9,269.9,246.8,269.9z"/>
		<path class="st0" d="M266,248.8h4.9v9.2h5.7v-9.2h4.9V273h-4.9v-10.7h-5.7V273H266V248.8z"/>
		<path class="st0" d="M289.4,248.8v16.8c0,2.4,0.5,4.2,2.8,4.2c2.3,0,2.8-1.8,2.8-4.2v-16.8h4.9v16.8c0,6.1-3.8,7.8-7.7,7.8
			c-4,0-7.7-1.3-7.7-7.8v-16.8H289.4z"/>
		<path class="st0" d="M303.1,248.8h7.2l3.5,17h0.1l3.5-17h7.2V273h-4.5v-19.3H320l-4.3,19.3H312l-4.3-19.3h-0.1V273h-4.5V248.8z"/>
		<path class="st0" d="M332.7,248.8h6l6.4,24.1h-5.1l-1.1-5.1h-6.4l-1.1,5.1h-5.1L332.7,248.8z M333.4,263.9h4.7l-2.3-10.9h-0.1
			L333.4,263.9z"/>
		<path class="st0" d="M352.5,248.8l5.9,16.5h0.1v-16.5h4.5V273h-5.5l-6-16.9h-0.1V273h-4.5v-24.1H352.5z"/>
		<path class="st0" d="M371,248.8h6l6.4,24.1h-5.1l-1.1-5.1h-6.4l-1.1,5.1h-5.1L371,248.8z M371.6,263.9h4.7L374,253h-0.1
			L371.6,263.9z"/>
		<path class="st0" d="M71.6,296.2c0-3.5-0.7-5-2.9-5c-2.4,0-3,2.4-3,9.3c0,7.3,1,8.6,3.1,8.6c1.7,0,3-0.9,3-6.1h4.9
			c0,5.2-1.3,9.7-7.7,9.7c-7.3,0-8.2-5.2-8.2-12.5c0-7.3,0.9-12.5,8.2-12.5c7,0,7.5,5.1,7.5,8.6H71.6z"/>
		<path class="st0" d="M87.1,287.5c7.3,0,8.2,5.2,8.2,12.5c0,7.3-0.9,12.5-8.2,12.5c-7.3,0-8.2-5.2-8.2-12.5
			C78.9,292.7,79.8,287.5,87.1,287.5z M87.1,309c2.9,0,3.3-2.5,3.3-9c0-6.5-0.5-9-3.3-9s-3.3,2.5-3.3,9
			C83.8,306.6,84.2,309,87.1,309z"/>
		<path class="st0" d="M98.3,288h7.2l3.4,17h0.1l3.5-17h7.2v24.1h-4.5v-19.3h-0.1l-4.3,19.3h-3.8l-4.3-19.3h-0.1v19.3h-4.5V288z"/>
		<path class="st0" d="M145.5,288v4h-5.3v20.2h-4.9V292h-5.3v-4H145.5z"/>
		<path class="st0" d="M161.1,288v4h-8.6v5.7h8.1v4h-8.1v6.5h9v4h-13.8V288H161.1z"/>
		<path class="st0" d="M174.2,296.2c0-3.5-0.7-5-2.9-5c-2.4,0-3,2.4-3,9.3c0,7.3,1,8.6,3.1,8.6c1.7,0,3-0.9,3-6.1h4.9
			c0,5.2-1.3,9.7-7.7,9.7c-7.3,0-8.2-5.2-8.2-12.5c0-7.3,0.9-12.5,8.2-12.5c7,0,7.5,5.1,7.5,8.6H174.2z"/>
		<path class="st0" d="M187.6,288l5.9,16.5h0.1V288h4.5v24.1h-5.5l-6-16.9h-0.1v16.9H182V288H187.6z"/>
		<path class="st0" d="M209.1,287.5c7.3,0,8.2,5.2,8.2,12.5c0,7.3-0.9,12.5-8.2,12.5c-7.3,0-8.2-5.2-8.2-12.5
			C200.9,292.7,201.8,287.5,209.1,287.5z M209.1,309c2.9,0,3.3-2.5,3.3-9c0-6.5-0.5-9-3.3-9c-2.9,0-3.3,2.5-3.3,9
			C205.8,306.6,206.3,309,209.1,309z"/>
		<path class="st0" d="M220.2,312.2V288h4.9v20.2h8.6v4H220.2z"/>
		<path class="st0" d="M243.6,287.5c7.3,0,8.2,5.2,8.2,12.5c0,7.3-0.9,12.5-8.2,12.5c-7.3,0-8.2-5.2-8.2-12.5
			C235.4,292.7,236.3,287.5,243.6,287.5z M243.6,309c2.9,0,3.3-2.5,3.3-9c0-6.5-0.5-9-3.3-9c-2.9,0-3.3,2.5-3.3,9
			C240.3,306.6,240.7,309,243.6,309z"/>
		<path class="st0" d="M265.4,295.2c0-1.8-0.8-4.1-2.8-4.1c-2.3,0-3.3,2.4-3.3,8.5c0,5.8,0.5,9.5,3.3,9.5c1.2,0,3-1.3,3-3.9v-2.5
			h-3.2v-3.6h7.9v13h-3.6v-2.2h-0.1c-1.2,1.9-2.8,2.7-5.1,2.7c-6,0-7.2-4.5-7.2-12.8c0-8.1,1.9-12.3,8.1-12.3c5.3,0,7.5,2.7,7.5,7.6
			H265.4z"/>
		<path class="st0" d="M273.7,312.2V288h4.9v24.1H273.7z"/>
		<path class="st0" d="M286.9,288h6l6.4,24.1h-5.1l-1.1-5.1h-6.4l-1.1,5.1h-5.1L286.9,288z M287.6,303.1h4.7l-2.3-10.9h-0.1
			L287.6,303.1z"/>
		<path class="st0" d="M304.9,304.6v0.7c0,2.3,0.6,3.7,3.2,3.7c1.5,0,2.9-0.9,2.9-3c0-2.2-1.1-3-4.3-4.1c-4.3-1.5-6.3-3.3-6.3-7.3
			c0-4.7,2.8-7.1,7.5-7.1c4.3,0,7.5,1.9,7.5,6.5v0.7h-4.7c0-2.3-0.7-3.6-2.6-3.6c-2.2,0-2.8,1.4-2.8,2.8c0,1.5,0.4,2.4,2.5,3.3
			l3.8,1.6c3.7,1.6,4.6,3.4,4.6,6.4c0,5.1-3.1,7.4-8.4,7.4c-5.5,0-7.7-2.6-7.7-7v-1H304.9z"/>
	</g>
</g>
<g>
	<rect x="509.7" y="10.3" class="st0" width="2.7" height="299.5"/>
</g>
<g>
	<rect x="546.3" y="64.1" class="st1" width="547.4" height="191.7"/>
	<path class="st0" d="M553.1,137.1v-71h32c3.3,0,6.4,0.7,9.3,2.1c2.8,1.4,5.3,3.2,7.4,5.5c2.1,2.3,3.7,4.8,4.8,7.7
		c1.2,2.9,1.8,5.8,1.8,8.7c0,2.2-0.3,4.3-0.8,6.4c-0.5,2-1.3,3.9-2.3,5.8c-1,1.8-2.2,3.4-3.7,4.9c-1.4,1.4-3,2.6-4.8,3.6l15.6,26.4
		h-18.5l-13.6-22.9h-10.7v22.9H553.1z M569.5,99.9h15c1.9,0,3.6-0.9,5-2.8c1.4-1.8,2.1-4.2,2.1-7c0-2.9-0.8-5.3-2.4-7
		c-1.6-1.7-3.3-2.6-5.2-2.6h-14.5V99.9z"/>
	<path class="st0" d="M670,122.7v14.4h-49.9v-71h49v14.4h-32.6v13.8h28v13.3h-28v15.1H670z"/>
	<path class="st0" d="M674.4,101c0-4.3,0.8-8.5,2.4-12.8c1.6-4.2,3.9-8,7-11.4c3.1-3.3,6.8-6,11.2-8.1c4.4-2.1,9.4-3.1,15-3.1
		c6.7,0,12.5,1.4,17.4,4.3c4.9,2.9,8.5,6.6,10.9,11.2L725.7,90c-0.8-1.9-1.8-3.4-3-4.6c-1.2-1.2-2.6-2.2-4-3c-1.5-0.8-3-1.3-4.5-1.6
		c-1.5-0.3-3-0.4-4.5-0.4c-3.1,0-5.9,0.6-8.2,1.9c-2.3,1.3-4.3,2.9-5.8,4.9c-1.5,2-2.7,4.3-3.4,6.8c-0.7,2.5-1.1,5.1-1.1,7.7
		c0,2.8,0.4,5.5,1.3,8.1c0.9,2.6,2.1,4.9,3.8,6.9c1.6,2,3.6,3.6,5.9,4.8c2.3,1.2,4.9,1.8,7.8,1.8c1.5,0,3-0.2,4.6-0.5
		c1.6-0.4,3.1-0.9,4.5-1.7c1.4-0.8,2.8-1.8,3.9-3c1.2-1.2,2.2-2.8,2.9-4.5l13.4,7.9c-1.1,2.6-2.7,4.9-4.8,7
		c-2.1,2.1-4.5,3.8-7.3,5.2c-2.7,1.4-5.6,2.5-8.7,3.2c-3.1,0.7-6.1,1.1-9,1.1c-5.1,0-9.9-1.1-14.2-3.1c-4.3-2.1-8-4.9-11.1-8.4
		c-3.1-3.5-5.5-7.4-7.2-11.8C675.2,110,674.4,105.6,674.4,101z"/>
	<path class="st0" d="M777.8,123.1c2.8,0,5.2-0.6,7.1-1.8c1.9-1.2,3.5-2.7,4.7-4.6c1.2-1.9,2.1-4.1,2.6-6.6s0.8-5.1,0.8-7.7V66.1
		h16.4v36.3c0,4.9-0.6,9.5-1.8,13.8c-1.2,4.3-3.1,8-5.7,11.2c-2.6,3.2-5.8,5.7-9.8,7.6c-4,1.8-8.7,2.8-14.2,2.8
		c-5.7,0-10.5-1-14.5-2.9c-4-1.9-7.3-4.5-9.8-7.8c-2.5-3.2-4.3-7-5.5-11.3c-1.2-4.3-1.8-8.7-1.8-13.4V66.1h16.4v36.3
		c0,2.7,0.3,5.3,0.8,7.8c0.5,2.5,1.4,4.7,2.6,6.6c1.2,1.9,2.8,3.5,4.7,4.6C772.6,122.6,775,123.1,777.8,123.1z"/>
	<path class="st0" d="M822,137.1v-71h32c3.3,0,6.4,0.7,9.3,2.1c2.8,1.4,5.3,3.2,7.4,5.5c2.1,2.3,3.7,4.8,4.8,7.7
		c1.2,2.9,1.8,5.8,1.8,8.7c0,2.2-0.3,4.3-0.8,6.4c-0.5,2-1.3,3.9-2.3,5.8c-1,1.8-2.2,3.4-3.7,4.9c-1.4,1.4-3,2.6-4.8,3.6l15.6,26.4
		h-18.5l-13.6-22.9h-10.7v22.9H822z M838.4,99.9h15c1.9,0,3.6-0.9,5-2.8c1.4-1.8,2.1-4.2,2.1-7c0-2.9-0.8-5.3-2.4-7
		c-1.6-1.7-3.3-2.6-5.2-2.6h-14.5V99.9z"/>
	<path class="st0" d="M931.6,86.9c-0.2-0.3-0.9-0.8-2.1-1.5c-1.2-0.7-2.7-1.5-4.5-2.3s-3.8-1.5-5.9-2.1c-2.1-0.6-4.3-0.9-6.4-0.9
		c-5.9,0-8.8,2-8.8,5.9c0,1.2,0.3,2.2,1,3c0.6,0.8,1.6,1.5,2.8,2.1c1.2,0.6,2.8,1.2,4.6,1.8c1.9,0.5,4,1.1,6.5,1.8
		c3.4,0.9,6.5,1.9,9.2,3c2.7,1.1,5,2.5,7,4.1c1.9,1.6,3.4,3.6,4.4,6c1,2.3,1.5,5.1,1.5,8.4c0,4-0.8,7.4-2.3,10.1
		c-1.5,2.8-3.5,5-6,6.7c-2.5,1.7-5.3,2.9-8.5,3.7s-6.5,1.1-9.9,1.1c-2.6,0-5.3-0.2-8-0.6c-2.7-0.4-5.4-1-8-1.8
		c-2.6-0.8-5.1-1.7-7.5-2.8c-2.4-1.1-4.7-2.3-6.8-3.7l7.2-14.3c0.3,0.3,1.1,1,2.6,1.9c1.5,0.9,3.3,1.9,5.5,2.8
		c2.2,0.9,4.6,1.8,7.3,2.5c2.7,0.7,5.4,1.1,8.1,1.1c5.8,0,8.7-1.8,8.7-5.3c0-1.3-0.4-2.4-1.3-3.3c-0.9-0.9-2.1-1.6-3.6-2.4
		c-1.5-0.7-3.4-1.3-5.5-1.9s-4.4-1.3-6.8-2c-3.3-1-6.1-2.1-8.5-3.3c-2.4-1.2-4.4-2.5-6-4.1c-1.6-1.5-2.7-3.3-3.5-5.3
		c-0.8-2-1.2-4.3-1.2-7c0-3.7,0.7-7,2.1-9.9c1.4-2.9,3.3-5.3,5.7-7.3c2.4-2,5.2-3.5,8.4-4.5c3.2-1,6.5-1.5,10-1.5
		c2.5,0,4.9,0.2,7.3,0.7c2.4,0.5,4.7,1.1,6.9,1.8c2.2,0.7,4.3,1.6,6.1,2.5c1.9,0.9,3.7,1.9,5.3,2.8L931.6,86.9z"/>
	<path class="st0" d="M981.6,137.7c-5.3,0-10.1-1-14.4-3.1c-4.3-2.1-8-4.8-11.1-8.1c-3.1-3.4-5.5-7.2-7.2-11.6
		c-1.7-4.3-2.5-8.8-2.5-13.4c0-4.7,0.9-9.2,2.6-13.5c1.8-4.3,4.2-8.1,7.4-11.4c3.2-3.3,6.9-5.9,11.3-7.9c4.3-2,9.1-2.9,14.2-2.9
		c5.3,0,10.1,1,14.4,3.1c4.3,2.1,8,4.8,11.1,8.2c3.1,3.4,5.4,7.3,7.1,11.6c1.7,4.3,2.5,8.7,2.5,13.2c0,4.7-0.9,9.2-2.6,13.5
		c-1.8,4.3-4.2,8.1-7.4,11.4c-3.1,3.3-6.9,6-11.2,8C991.4,136.7,986.7,137.7,981.6,137.7z M963.1,101.7c0,2.7,0.4,5.4,1.2,7.9
		c0.8,2.6,2,4.9,3.6,6.9c1.6,2,3.5,3.6,5.8,4.8c2.3,1.2,5,1.8,8,1.8c3.1,0,5.9-0.6,8.2-1.9c2.3-1.3,4.3-2.9,5.8-5
		c1.5-2,2.7-4.3,3.5-6.9c0.8-2.6,1.1-5.2,1.1-7.9c0-2.7-0.4-5.4-1.2-7.9c-0.8-2.6-2-4.8-3.6-6.8c-1.6-2-3.5-3.5-5.8-4.7
		c-2.3-1.2-5-1.8-8-1.8c-3.1,0-5.8,0.6-8.2,1.8c-2.3,1.2-4.2,2.9-5.8,4.9c-1.6,2-2.7,4.3-3.5,6.9C963.4,96.4,963.1,99.1,963.1,101.7
		z"/>
	<path class="st0" d="M1069.1,86.9c-0.2-0.3-0.9-0.8-2.1-1.5c-1.2-0.7-2.7-1.5-4.5-2.3s-3.8-1.5-5.9-2.1c-2.1-0.6-4.3-0.9-6.4-0.9
		c-5.9,0-8.8,2-8.8,5.9c0,1.2,0.3,2.2,1,3c0.6,0.8,1.6,1.5,2.8,2.1c1.2,0.6,2.8,1.2,4.6,1.8c1.9,0.5,4,1.1,6.5,1.8
		c3.4,0.9,6.5,1.9,9.2,3c2.7,1.1,5,2.5,7,4.1c1.9,1.6,3.4,3.6,4.4,6c1,2.3,1.5,5.1,1.5,8.4c0,4-0.8,7.4-2.3,10.1
		c-1.5,2.8-3.5,5-6,6.7c-2.5,1.7-5.3,2.9-8.5,3.7s-6.5,1.1-9.9,1.1c-2.6,0-5.3-0.2-8-0.6c-2.7-0.4-5.4-1-8-1.8
		c-2.6-0.8-5.1-1.7-7.5-2.8c-2.4-1.1-4.7-2.3-6.8-3.7l7.2-14.3c0.3,0.3,1.1,1,2.6,1.9c1.5,0.9,3.3,1.9,5.5,2.8
		c2.2,0.9,4.6,1.8,7.3,2.5c2.7,0.7,5.4,1.1,8.1,1.1c5.8,0,8.7-1.8,8.7-5.3c0-1.3-0.4-2.4-1.3-3.3c-0.9-0.9-2.1-1.6-3.6-2.4
		c-1.5-0.7-3.4-1.3-5.5-1.9s-4.4-1.3-6.8-2c-3.3-1-6.1-2.1-8.5-3.3c-2.4-1.2-4.4-2.5-6-4.1c-1.6-1.5-2.7-3.3-3.5-5.3
		c-0.8-2-1.2-4.3-1.2-7c0-3.7,0.7-7,2.1-9.9c1.4-2.9,3.3-5.3,5.7-7.3c2.4-2,5.2-3.5,8.4-4.5c3.2-1,6.5-1.5,10-1.5
		c2.5,0,4.9,0.2,7.3,0.7c2.4,0.5,4.7,1.1,6.9,1.8c2.2,0.7,4.3,1.6,6.1,2.5c1.9,0.9,3.7,1.9,5.3,2.8L1069.1,86.9z"/>
	<path class="st0" d="M563.4,166.1l16.7,50.4l16.5-50.4h17.3l-26.9,71h-13.8l-27.2-71H563.4z"/>
	<path class="st0" d="M620.5,237.1v-71h16.4v71H620.5z"/>
	<path class="st0" d="M693.1,186.9c-0.2-0.3-0.9-0.8-2.1-1.5c-1.2-0.7-2.7-1.5-4.5-2.3s-3.8-1.5-5.9-2.1c-2.1-0.6-4.3-0.9-6.4-0.9
		c-5.9,0-8.8,2-8.8,5.9c0,1.2,0.3,2.2,1,3c0.6,0.8,1.6,1.5,2.8,2.1c1.2,0.6,2.8,1.2,4.6,1.8c1.9,0.5,4,1.1,6.5,1.8
		c3.4,0.9,6.5,1.9,9.2,3c2.7,1.1,5,2.5,7,4.1c1.9,1.6,3.4,3.6,4.4,6c1,2.3,1.5,5.1,1.5,8.4c0,4-0.8,7.4-2.3,10.1
		c-1.5,2.8-3.5,5-6,6.7c-2.5,1.7-5.3,2.9-8.5,3.7s-6.5,1.1-9.9,1.1c-2.6,0-5.3-0.2-8-0.6c-2.7-0.4-5.4-1-8-1.8
		c-2.6-0.8-5.1-1.7-7.5-2.8c-2.4-1.1-4.7-2.3-6.8-3.7l7.2-14.3c0.3,0.3,1.1,1,2.6,1.9c1.5,0.9,3.3,1.9,5.5,2.8
		c2.2,0.9,4.6,1.8,7.3,2.5c2.7,0.7,5.4,1.1,8.1,1.1c5.8,0,8.7-1.8,8.7-5.3c0-1.3-0.4-2.4-1.3-3.3c-0.9-0.9-2.1-1.6-3.6-2.4
		c-1.5-0.7-3.4-1.3-5.5-1.9s-4.4-1.3-6.8-2c-3.3-1-6.1-2.1-8.5-3.3c-2.4-1.2-4.4-2.5-6-4.1c-1.6-1.5-2.7-3.3-3.5-5.3
		c-0.8-2-1.2-4.3-1.2-7c0-3.7,0.7-7,2.1-9.9c1.4-2.9,3.3-5.3,5.7-7.3c2.4-2,5.2-3.5,8.4-4.5c3.2-1,6.5-1.5,10-1.5
		c2.5,0,4.9,0.2,7.3,0.7c2.4,0.5,4.7,1.1,6.9,1.8c2.2,0.7,4.3,1.6,6.1,2.5c1.9,0.9,3.7,1.9,5.3,2.8L693.1,186.9z"/>
	<path class="st0" d="M742.5,223.1c2.8,0,5.2-0.6,7.1-1.8c1.9-1.2,3.5-2.7,4.7-4.6c1.2-1.9,2.1-4.1,2.6-6.6s0.8-5.1,0.8-7.7v-36.3
		H774v36.3c0,4.9-0.6,9.5-1.8,13.8c-1.2,4.3-3.1,8-5.7,11.2c-2.6,3.2-5.8,5.7-9.8,7.6c-4,1.8-8.7,2.8-14.2,2.8
		c-5.7,0-10.5-1-14.5-2.9c-4-1.9-7.3-4.5-9.8-7.8c-2.5-3.2-4.3-7-5.5-11.3c-1.2-4.3-1.8-8.7-1.8-13.4v-36.3h16.4v36.3
		c0,2.7,0.3,5.3,0.8,7.8c0.5,2.5,1.4,4.7,2.6,6.6c1.2,1.9,2.8,3.5,4.7,4.6C737.3,222.6,739.7,223.1,742.5,223.1z"/>
	<path class="st0" d="M803,166.1h14.8l25.9,71h-16.8l-5.5-15.9h-22.1l-5.4,15.9h-16.8L803,166.1z M818.7,209.9l-8.3-25.1l-8.5,25.1
		H818.7z"/>
	<path class="st0" d="M850.7,237.1v-71h16.4v71H850.7z"/>
	<path class="st0" d="M923.3,186.9c-0.2-0.3-0.9-0.8-2.1-1.5c-1.2-0.7-2.7-1.5-4.5-2.3s-3.8-1.5-5.9-2.1c-2.1-0.6-4.3-0.9-6.4-0.9
		c-5.9,0-8.8,2-8.8,5.9c0,1.2,0.3,2.2,1,3c0.6,0.8,1.6,1.5,2.8,2.1c1.2,0.6,2.8,1.2,4.6,1.8c1.9,0.5,4,1.1,6.5,1.8
		c3.4,0.9,6.5,1.9,9.2,3c2.7,1.1,5,2.5,7,4.1c1.9,1.6,3.4,3.6,4.4,6c1,2.3,1.5,5.1,1.5,8.4c0,4-0.8,7.4-2.3,10.1
		c-1.5,2.8-3.5,5-6,6.7c-2.5,1.7-5.3,2.9-8.5,3.7s-6.5,1.1-9.9,1.1c-2.6,0-5.3-0.2-8-0.6c-2.7-0.4-5.4-1-8-1.8
		c-2.6-0.8-5.1-1.7-7.5-2.8c-2.4-1.1-4.7-2.3-6.8-3.7l7.2-14.3c0.3,0.3,1.1,1,2.6,1.9c1.5,0.9,3.3,1.9,5.5,2.8
		c2.2,0.9,4.6,1.8,7.3,2.5c2.7,0.7,5.4,1.1,8.1,1.1c5.8,0,8.7-1.8,8.7-5.3c0-1.3-0.4-2.4-1.3-3.3c-0.9-0.9-2.1-1.6-3.6-2.4
		c-1.5-0.7-3.4-1.3-5.5-1.9s-4.4-1.3-6.8-2c-3.3-1-6.1-2.1-8.5-3.3c-2.4-1.2-4.4-2.5-6-4.1c-1.6-1.5-2.7-3.3-3.5-5.3
		c-0.8-2-1.2-4.3-1.2-7c0-3.7,0.7-7,2.1-9.9c1.4-2.9,3.3-5.3,5.7-7.3c2.4-2,5.2-3.5,8.4-4.5c3.2-1,6.5-1.5,10-1.5
		c2.5,0,4.9,0.2,7.3,0.7c2.4,0.5,4.7,1.1,6.9,1.8c2.2,0.7,4.3,1.6,6.1,2.5c1.9,0.9,3.7,1.9,5.3,2.8L923.3,186.9z"/>
</g>
<g>
</g>
<g>
</g>
<g>
</g>
<g>
</g>
<g>
</g>
<g>
</g>
</svg>
