<svg id="Layer_1" data-name="Layer 1" xmlns="http://www.w3.org/2000/svg" viewBox="0 0 70 70"><defs><style>.cls-1{fill:#efb420;}.cls-2{fill:#d19824;}.cls-3{fill:#ceb4d7;}.cls-4{fill:#fff;}.cls-5{fill:#efbf4b;}.cls-6{fill:#e7daec;}</style></defs><path class="cls-1" d="M68.1,26a34.36,34.36,0,1,0-42.2,42.2Z"/><path class="cls-2" d="M68.1,26l-12-12L13.9,56.15l12,12a33.89,33.89,0,0,0,9.1,1.2A34.4,34.4,0,0,0,69.4,35,38.34,38.34,0,0,0,68.1,26Z"/><path class="cls-3" d="M35,5.15l-7.5,29.9L35,65a29.9,29.9,0,0,0,0-59.8Z"/><path class="cls-4" d="M5.1,35.05A29.92,29.92,0,0,0,35,65V5.15A29.92,29.92,0,0,0,5.1,35.05Z"/><path class="cls-2" d="M35,8.15l-6.7,26.9L35,62a26.9,26.9,0,0,0,0-53.8Z"/><path class="cls-5" d="M8.1,35.05A26.84,26.84,0,0,0,35,62V8.15A26.84,26.84,0,0,0,8.1,35.05Z"/><path class="cls-6" d="M49.07,33.94a13.74,13.74,0,0,1-5.26,10.82,6.6,6.6,0,0,0-2.51,4l-.1,0H29.4l-.14,0A6,6,0,0,0,27,44.93a13.77,13.77,0,1,1,22.05-11Z"/><path class="cls-4" d="M35,20.17A13.46,13.46,0,0,0,21.82,31a13.91,13.91,0,0,0,5.08,13.9,6.06,6.06,0,0,1,2.19,3.78l.14,0H35V20.17Z"/><path class="cls-6" d="M48.22,22.49a1.45,1.45,0,0,1-1-.43,1.47,1.47,0,0,1,0-2.09l2.72-2.72a1.47,1.47,0,0,1,2.09,0,1.49,1.49,0,0,1,0,2.09l-2.72,2.72A1.52,1.52,0,0,1,48.22,22.49Z"/><path class="cls-6" d="M57.42,35.41H53.58a1.48,1.48,0,1,1,0-2.95h3.84a1.48,1.48,0,1,1,0,2.95Z"/><path class="cls-6" d="M50.94,51.06a1.47,1.47,0,0,1-1-.43l-2.72-2.72a1.48,1.48,0,1,1,2.09-2.09L52,48.54a1.49,1.49,0,0,1,0,2.09A1.48,1.48,0,0,1,50.94,51.06Z"/><path class="cls-6" d="M29.4,55.1V51.05a6,6,0,0,0-.14-1.34l.14,0H41.2l.1,0a5.78,5.78,0,0,0-.1,1V55.1"/><path class="cls-6" d="M35,17.14a1.48,1.48,0,0,1-1.48-1.48V11.81a1.48,1.48,0,0,1,3,0v3.85A1.48,1.48,0,0,1,35,17.14Z"/><path class="cls-4" d="M35,10.34a1.48,1.48,0,0,0-1.48,1.47v3.85A1.48,1.48,0,0,0,35,17.14Z"/><path class="cls-4" d="M22.37,22.49a1.45,1.45,0,0,1-1-.43l-2.72-2.72a1.47,1.47,0,0,1,2.08-2.09L23.42,20a1.49,1.49,0,0,1,0,2.09A1.52,1.52,0,0,1,22.37,22.49Z"/><path class="cls-4" d="M17,35.41H13.17a1.48,1.48,0,1,1,0-2.95H17a1.48,1.48,0,0,1,0,2.95Z"/><path class="cls-4" d="M19.65,51.06a1.44,1.44,0,0,1-1-.43,1.47,1.47,0,0,1,0-2.09l2.72-2.72a1.47,1.47,0,0,1,2.09,0,1.49,1.49,0,0,1,0,2.09l-2.73,2.72A1.44,1.44,0,0,1,19.65,51.06Z"/><rect class="cls-4" x="29.26" y="49.69" width="5.74" height="5.41"/></svg>