<?xml version="1.0" encoding="utf-8"?>
<!-- Generator: Adobe Illustrator 22.0.1, SVG Export Plug-In . SVG Version: 6.00 Build 0)  -->
<svg version="1.1" id="Layer_1" xmlns="http://www.w3.org/2000/svg" xmlns:xlink="http://www.w3.org/1999/xlink" x="0px" y="0px"
	 viewBox="0 0 70 70" style="enable-background:new 0 0 70 70;" xml:space="preserve">
<style type="text/css">
	.st0{fill:#EFF7FC;}
	.st1{fill:#129ED9;}
</style>
<g>
	<g>
		<g>
			<path class="st0" d="M26.9,9.7c2.2,0,4.2,0.8,5.7,2.3c1.5,1.5,2.3,3.5,2.3,5.7V42c0,3.4-0.9,6.7-2.6,9.7c-1.7,3-4.1,5.3-7.1,7.1
				c-3,1.7-6.2,2.6-9.7,2.6h-0.8c-1.5,0-2.9-0.6-4-1.6c-1.1-1.1-1.6-2.5-1.6-4v-4.8c0-1.5,0.6-2.9,1.6-4c1.1-1.1,2.5-1.6,4-1.6h0.8
				c0.9,0,1.6-0.3,2.3-1c0.7-0.7,1-1.4,1-2.3v-3.2H14c-2.2,0-4.1-0.8-5.7-2.3C6.8,34.8,6,32.9,6,30.7V17.8c0-2.2,0.8-4.1,2.3-5.7
				c1.5-1.5,3.5-2.4,5.7-2.4H26.9z M56,9.7c2.2,0,4.2,0.8,5.7,2.3c1.5,1.5,2.3,3.5,2.3,5.7V42c0,3.4-0.9,6.7-2.6,9.7
				c-1.7,3-4.1,5.3-7.1,7.1c-3,1.7-6.2,2.6-9.7,2.6h-0.8c-1.5,0-2.9-0.6-4-1.6c-1.1-1.1-1.6-2.5-1.6-4v-4.8c0-1.5,0.6-2.9,1.6-4
				c1.1-1.1,2.4-1.6,4-1.6h0.8c0.9,0,1.6-0.3,2.3-1c0.7-0.7,1-1.4,1-2.3v-3.2h-4.9c-2.2,0-4.1-0.8-5.7-2.3c-1.5-1.5-2.3-3.5-2.3-5.7
				V17.8c0-2.2,0.8-4.1,2.3-5.7c1.5-1.5,3.5-2.4,5.7-2.4H56z"/>
			<path class="st0" d="M39.6,34.1c-0.9-0.9-1.4-2.1-1.4-3.4V17.8c0-1.3,0.5-2.5,1.4-3.4c0.9-0.9,2.1-1.4,3.4-1.4H56
				c1.3,0,2.5,0.5,3.4,1.4c0.9,0.9,1.4,2.1,1.4,3.4V42c0,2.9-0.7,5.6-2.2,8.1c-1.4,2.5-3.4,4.4-5.9,5.9c-2.5,1.4-5.2,2.2-8.1,2.2
				h-0.8c-0.7,0-1.2-0.2-1.7-0.7c-0.5-0.5-0.7-1-0.7-1.7v-4.8c0-0.7,0.2-1.2,0.7-1.7c0.5-0.5,1-0.7,1.7-0.7h0.8
				c1.7,0,3.3-0.6,4.5-1.9c1.3-1.3,1.9-2.8,1.9-4.5v-6.4h-8.1C41.7,35.5,40.6,35,39.6,34.1z M10.6,34.1c-0.9-0.9-1.4-2.1-1.4-3.4
				V17.8c0-1.3,0.5-2.5,1.4-3.4c0.9-0.9,2.1-1.4,3.4-1.4h12.9c1.3,0,2.5,0.5,3.4,1.4c0.9,0.9,1.4,2.1,1.4,3.4V42
				c0,2.9-0.7,5.6-2.2,8.1c-1.4,2.5-3.4,4.4-5.9,5.9c-2.5,1.4-5.2,2.2-8.1,2.2h-0.8c-0.7,0-1.2-0.2-1.7-0.7c-0.5-0.5-0.7-1-0.7-1.7
				v-4.8c0-0.7,0.2-1.2,0.7-1.7c0.5-0.5,1-0.7,1.7-0.7h0.8c1.7,0,3.3-0.6,4.5-1.9c1.3-1.3,1.9-2.8,1.9-4.5v-6.4H14
				C12.7,35.5,11.6,35,10.6,34.1z"/>
		</g>
	</g>
	<g>
		<g>
			<path class="st1" d="M11,33.7c-0.9-0.9-1.4-2.1-1.4-3.4V17.4C9.6,16,10,14.9,11,14c0.9-0.9,2.1-1.4,3.4-1.4h12.9
				c1.3,0,2.5,0.5,3.4,1.4c0.9,0.9,1.4,2.1,1.4,3.4v24.2c0,2.9-0.7,5.6-2.2,8.1c-1.4,2.5-3.4,4.5-5.9,5.9c-2.5,1.4-5.2,2.2-8.1,2.2
				h-0.8c-0.7,0-1.2-0.2-1.7-0.7c-0.5-0.5-0.7-1-0.7-1.7v-4.8c0-0.7,0.2-1.2,0.7-1.7c0.5-0.5,1-0.7,1.7-0.7H16
				c1.7,0,3.3-0.6,4.5-1.9c1.3-1.3,1.9-2.8,1.9-4.5v-6.4h-8.1C13.1,35.1,11.9,34.6,11,33.7z M40,33.7c-0.9-0.9-1.4-2.1-1.4-3.4V17.4
				c0-1.3,0.5-2.5,1.4-3.4c0.9-0.9,2.1-1.4,3.4-1.4h12.9c1.3,0,2.5,0.5,3.4,1.4c0.9,0.9,1.4,2.1,1.4,3.4v24.2c0,2.9-0.7,5.6-2.2,8.1
				c-1.4,2.5-3.4,4.5-5.9,5.9c-2.5,1.4-5.2,2.2-8.1,2.2h-0.8c-0.7,0-1.2-0.2-1.7-0.7c-0.5-0.5-0.7-1-0.7-1.7v-4.8
				c0-0.7,0.2-1.2,0.7-1.7c0.5-0.5,1-0.7,1.7-0.7H45c1.7,0,3.3-0.6,4.5-1.9c1.3-1.3,1.9-2.8,1.9-4.5v-6.4h-8.1
				C42.1,35.1,41,34.6,40,33.7z"/>
		</g>
	</g>
</g>
</svg>
