<?xml version="1.0" encoding="utf-8"?>
<!-- Generator: Adobe Illustrator 24.1.1, SVG Export Plug-In . SVG Version: 6.00 Build 0)  -->
<svg version="1.1" id="Layer_1" xmlns="http://www.w3.org/2000/svg" xmlns:xlink="http://www.w3.org/1999/xlink" x="0px" y="0px"
	 viewBox="0 0 40 40" style="enable-background:new 0 0 40 40;" xml:space="preserve">
<g>
	<g>
		<path d="M29.8,32.1c-0.4,0-0.9-0.3-1-0.7c-0.2-0.6,0.1-1.1,0.7-1.3c4.5-1.3,7.3-3.5,7.3-5.7c0-1.4-1.1-2.6-2.1-3.3
			c-0.5-0.3-0.6-1-0.2-1.5c0.3-0.5,1-0.6,1.5-0.2c1.9,1.4,2.9,3.1,2.9,4.9c0,3.2-3.2,6-8.7,7.7C30,32.1,29.9,32.1,29.8,32.1z"/>
	</g>
	<path d="M21.8,31l-4.5-3.4c-0.5-0.3-1.1-0.3-1.5,0.2c-0.3,0.5-0.3,1.1,0.2,1.5l2.7,2c-4.2-0.1-8-0.9-11-2.2c-2.9-1.3-4.6-3-4.6-4.7
		c0-1.6,1.5-2.9,2.7-3.7c0.5-0.3,0.6-1,0.3-1.4c-0.3-0.5-1-0.6-1.4-0.3c-2.4,1.5-3.7,3.4-3.7,5.5c0,2.6,2.1,4.9,5.8,6.6
		c2.8,1.3,6.4,2.1,10.2,2.3l-1,0.7c-0.5,0.3-0.6,1-0.3,1.5c0.2,0.3,0.5,0.5,0.9,0.5c0.2,0,0.4-0.1,0.6-0.2l4.5-3.1
		c0.3-0.2,0.4-0.5,0.5-0.8C22.3,31.5,22.1,31.2,21.8,31z"/>
</g>
<g>
	<path d="M29.5,38.5h-18c-2.2,0-4-1.8-4-4v-27c0-2.2,1.8-4,4-4h18c2.2,0,4,1.8,4,4v27C33.5,36.7,31.7,38.5,29.5,38.5z M11.5,5.5
		c-1.1,0-2,0.9-2,2v27c0,1.1,0.9,2,2,2h18c1.1,0,2-0.9,2-2v-27c0-1.1-0.9-2-2-2H11.5z"/>
</g>
<g>
</g>
<g>
</g>
<g>
</g>
<g>
</g>
<g>
</g>
<g>
</g>
<g>
</g>
<g>
</g>
<g>
</g>
<g>
</g>
<g>
</g>
<g>
</g>
<g>
</g>
<g>
</g>
<g>
</g>
</svg>
