<?xml version="1.0" encoding="utf-8"?>
<!-- Generator: Adobe Illustrator 24.2.1, SVG Export Plug-In . SVG Version: 6.00 Build 0)  -->
<svg version="1.1" id="Object" xmlns="http://www.w3.org/2000/svg" xmlns:xlink="http://www.w3.org/1999/xlink" x="0px" y="0px"
	 viewBox="0 0 293 284" style="enable-background:new 0 0 293 284;" xml:space="preserve">
<style type="text/css">
	.st0{opacity:0.4;}
	.st1{fill:#E0E0E0;}
</style>
<g class="st0">
	<g>
		<g>
			<path class="st1" d="M237.5,53.4c-2.7,0.2-5.6,0.5-8-1c-2.7-1.8-2.3-4.7-2.2-7.6c0.3-5.6,0.7-11.3,1.1-16.9
				c0.2-2.9,0.5-5.8,0.8-8.7c0.2-2.2,0.4-4.5,1.1-6.6c0.8-2.3,2.4-4.1,4.8-4.8c2.5-0.7,5.2-0.6,7.7-0.7c5.6-0.1,11.3,0.1,16.9,0.7
				c2.5,0.3,5.1,0.5,7.4,1.6c2.3,1.1,3.6,3.2,4.3,5.5c1.6,5.2,1.4,11,1.2,16.3c-0.1,2.8-0.3,5.5-0.4,8.3c-0.1,2.2-0.1,4.6-1,6.7
				c-1.1,2.4-3.3,3.6-5.8,4c-1.2,0.2-2.5,0.3-3.8,0.3c-1,0.1-2.2,0-3.1,0.4c-1.9,0.9-1.3,4.3-1.1,5.9c0.4,2.7,1.3,5.3,2.7,7.6
				c0.2-0.2,0.5-0.5,0.7-0.7c-4.3-2.6-7.1-7.1-7.4-12.1c0-0.3-0.3-0.6-0.6-0.5c-6.9,2-14,2.4-21.1,2.2c-0.3,0-0.3,0.4-0.1,0.5
				c7.1,1.2,14.6,0.3,21.5-1.7c-0.2-0.2-0.4-0.3-0.6-0.5c0.3,5.3,3.3,10.2,7.8,12.9c0.4,0.3,0.9-0.3,0.7-0.7
				c-1.5-2.6-2.4-5.4-2.7-8.4c-0.1-1.2-0.5-3.5,1-3.9c1.2-0.3,2.6-0.2,3.8-0.3c2.1-0.1,4.2-0.4,6-1.5c1.8-1.1,2.9-2.9,3.4-4.9
				c0.5-2.2,0.5-4.5,0.6-6.8c0.1-3.1,0.3-6.1,0.4-9.2c0.1-5.2,0.2-11.1-2-16c-0.9-2.1-2.4-3.7-4.5-4.6c-2.1-1-4.5-1.2-6.8-1.5
				c-6.1-0.6-12.2-0.9-18.3-0.7c-4.6,0.1-9.8,0.1-12.1,4.8c-0.9,1.9-1.3,4-1.5,6c-0.3,3-0.6,6-0.8,9c-0.6,6.9-1.1,13.7-1.4,20.6
				c-0.1,2.6,0.3,4.8,2.5,6.3c2.5,1.7,5.7,1.4,8.5,1C237.8,53.9,237.8,53.4,237.5,53.4L237.5,53.4z"/>
		</g>
	</g>
</g>
<g class="st0">
	<g>
		<g>
			<g>
				<path class="st1" d="M30.1,53.4c-1.7,0.3-3.5,0-5.1-0.3c-1.9-0.3-3.9-0.8-5.7-1.5c-1.5-0.6-3.1-1.2-4.2-2.5
					c-1.8-1.9-3.2-4.2-4-6.7c-3.6-10,1.4-22.7,10.2-28.3c4.6-3,10.1-4,15.5-4.2C42.2,9.6,48,10.2,53,12.6c4.6,2.1,8.6,5.7,10.7,10.3
					c2,4.5,2.3,9.9,0.7,14.6c-1.8,5.2-5.8,9.4-10.5,12.1c-5.6,3.2-12,4.1-18.4,3.9c-0.4,0-0.4,0.6,0,0.6
					c10.9,0.8,22.9-3.3,28.3-13.3c2.5-4.5,3.1-9.9,1.8-14.8c-1.3-5.1-4.5-9.3-8.9-12.2C52,10.5,46.3,9.2,40.6,8.9
					c-5.7-0.2-11.8,0.4-17.1,2.8c-9.8,4.5-16,16.7-14.2,27.4c0.8,4.9,3.6,10.4,8.3,12.5c2.1,0.9,4.4,1.5,6.7,1.9
					c1.9,0.3,3.9,0.6,5.8,0.2C30.5,53.8,30.4,53.4,30.1,53.4L30.1,53.4z"/>
			</g>
		</g>
	</g>
	<g>
		<g>
			<g>
				<path class="st1" d="M35.2,53.6c-1,2.4-0.9,5.3,0.3,7.6c0.2-0.2,0.3-0.4,0.5-0.6c-2.7-0.9-5.9-3.7-5.4-6.8
					c0.1-0.5-0.6-0.7-0.8-0.2c-0.8,3.5,2.9,6.9,5.9,7.9c0.4,0.1,0.6-0.3,0.5-0.6c-1.2-2.3-0.9-4.6-0.5-7.1
					C35.7,53.4,35.3,53.3,35.2,53.6L35.2,53.6z"/>
			</g>
		</g>
	</g>
</g>
<g class="st0">
	<g>
		<g>
			<g>
				<path class="st1" d="M103.4,51.2c1.3,3.2,3.1,6.4,6.3,8c0.3,0.1,0.7-0.1,0.6-0.4c-0.7-2.7-1.2-5.3-0.1-8
					c0.2-0.4-0.4-0.8-0.6-0.4c-1.6,2.5-0.8,5.8-0.1,8.5c0.2-0.1,0.4-0.3,0.6-0.4c-3.2-1.5-4.6-4.6-6.3-7.5
					C103.6,50.9,103.3,51,103.4,51.2L103.4,51.2z"/>
			</g>
		</g>
	</g>
	<g>
		<g>
			<g>
				<path class="st1" d="M109.6,51.1c4.3,0.4,8.6,0.6,12.9,0.6c3.8,0,7.7-0.2,11.4-1.4c5.8-1.8,12.1-7.4,9.8-14.2
					c-1.1-3.1-4.2-5.3-7.5-4.9c0.1,0.2,0.2,0.4,0.4,0.6c2.9-6.1,0-13.5-6.3-16c-6-2.4-13.3,0.4-16.4,6c0.2,0,0.4,0,0.7,0
					c-3.8-5-10.3-8.9-16.6-6c-5.3,2.5-6.6,9.3-4.8,14.4c0.2-0.2,0.3-0.3,0.5-0.5c-7.1-1.5-14.4,2.8-16.3,9.9c-0.8,3.2-0.4,6.9,2.3,9
					c2.8,2.2,7,2.7,10.5,3c2.5,0.2,5,0.1,7.5-0.2c1.7-0.2,4.6-1.2,5.7,0.7c0.3,0.5,1,0,0.7-0.4c-1.4-2.5-4.9-1.3-7.1-1
					c-4,0.5-8.1,0.3-12-0.6c-3.7-0.8-6.9-2.7-7.2-6.8c-0.2-3.4,1.4-6.9,3.8-9.3c3.1-3.1,7.6-4.3,11.8-3.4c0.3,0.1,0.6-0.2,0.5-0.5
					c-1.6-4.7-0.6-10.9,4.1-13.4c5.9-3.1,12.3,0.8,15.9,5.5c0.2,0.2,0.5,0.3,0.7,0c2.8-5.1,9.2-7.7,14.8-5.9c6.2,2,9.4,9.2,6.5,15.1
					c-0.1,0.2,0,0.7,0.4,0.6c4.4-0.5,7.5,3.6,7,7.7c-0.4,4.1-3.6,7.2-7.2,8.8c-3.9,1.8-8.3,2.2-12.5,2.3c-4.6,0.1-9.3-0.1-13.9-0.4
					C109.2,50.4,109.3,51,109.6,51.1L109.6,51.1z"/>
			</g>
		</g>
	</g>
</g>
<g class="st0">
	<g>
		<g>
			<g>
				<path class="st1" d="M123.4,125.9c-9.2,3.8-20.5,2.3-27.2-5.4c-6.9-8-7.1-19.6-1.7-28.4c5.3-8.7,15.6-13.8,25.8-13.6
					c10.2,0.2,20,6.1,22.9,16.2c1.7,5.9,0.2,11.5-2.7,16.7c-2.7,5-6.1,9.9-11.3,12.6c-0.5,0.3-0.1,1,0.4,0.8
					c4.7-2.5,8-6.8,10.7-11.3c2.8-4.8,5-10,4.3-15.7c-1.3-10.7-10.3-18.3-20.6-19.9c-10.4-1.5-21.5,2.5-28.2,10.7
					c-6.8,8.4-8.2,20.4-2.3,29.6c6.4,10,19.5,12.9,30.1,8.2C123.9,126.2,123.6,125.7,123.4,125.9L123.4,125.9z"/>
			</g>
		</g>
	</g>
	<g>
		<g>
			<g>
				<path class="st1" d="M129,124.4c0.8,4.6,1.6,9.2,2.5,13.9c0.2-0.1,0.5-0.2,0.7-0.3c-2.3-4.4-5.8-8-8.6-12.1
					c-0.3-0.4-0.9,0-0.7,0.4c2.6,4.2,6.3,7.7,8.5,12.1c0.2,0.4,0.8,0.1,0.7-0.3c-0.9-4.6-1.8-9.2-2.8-13.8
					C129.4,123.9,128.9,124,129,124.4L129,124.4z"/>
			</g>
		</g>
	</g>
	<g>
		<g>
			<g>
				<path class="st1" d="M91.3,87c-5.5,6.6-7.3,16.1-5.8,24.4c0.1,0.5,0.8,0.3,0.8-0.2c-0.8-4.2-0.7-8.5,0.3-12.6
					c1-4.1,2.8-7.8,5.1-11.3C91.8,87.1,91.5,86.8,91.3,87L91.3,87z"/>
			</g>
		</g>
	</g>
</g>
<g class="st0">
	<g>
		<g>
			<g>
				<path class="st1" d="M101.2,165.3c0.4-2.6,0.9-5.5,3-7.3c1-0.9,2.5-1.6,3.9-1.2c1.6,0.4,2.8,1.9,2.5,3.5c0.2,0,0.4,0,0.7,0
					c-0.6-2,1.5-3.3,3.1-4c1.8-0.8,3.8-1.3,5.7-1.2c3.5,0.1,7.3,2.6,6.9,6.5c0,0.3,0.4,0.5,0.6,0.3c2.3-2.9,6.3-4.2,9.9-3.3
					c2,0.5,3.8,1.7,4.9,3.4c1.3,2,1.2,4.7-0.7,6.3c-0.3,0.2,0,0.6,0.3,0.6c2.8,0.2,4.2,3.2,4.5,5.7c0.3,2.6-0.4,5.3-1.7,7.5
					c-2.9,4.8-9,6.7-14.2,4.8c-0.2-0.1-0.4,0.1-0.4,0.2c-1.5,4.7-6.5,7.6-11.4,7.2c-5.3-0.4-9.7-4.4-12-8.9
					c-0.1-0.2-0.4-0.2-0.6-0.1c-3.5,3.8-8.5,8.2-13.7,4.5c-4.6-3.3-3.7-10.3,1.4-12.5c0.4-0.2,0.1-0.7-0.2-0.7
					c-4.1-0.3-5.4-5.3-3.4-8.3c2.2-3.4,7-4.9,10.7-3.1c0.4,0.2,0.8-0.4,0.4-0.6c-4.2-2.1-9.9-0.3-12,3.9c-1.8,3.6,0.1,8.5,4.4,8.8
					c-0.1-0.2-0.1-0.5-0.2-0.7c-5.2,2.4-6.5,9.6-2,13.3c2.2,1.8,5,2.4,7.7,1.6c3-1,5.4-3.4,7.5-5.7c-0.2,0-0.4,0-0.6-0.1
					c2.5,4.9,7.3,9,13,9.3c5,0.2,10.2-2.8,11.7-7.7c-0.1,0.1-0.3,0.2-0.4,0.2c5.9,2.2,12.7-0.4,15.5-6c1.3-2.5,1.7-5.6,1.1-8.3
					c-0.6-2.4-2.3-4.8-5-5c0.1,0.2,0.2,0.4,0.3,0.6c4.2-3.3,0.6-8.9-3.3-10.5c-4.1-1.6-9.1-0.4-11.8,3.1c0.2,0.1,0.4,0.2,0.6,0.3
					c0.4-4.4-4-7.2-8.1-7.2c-2.9,0.1-10.3,1.8-9,6.1c0.1,0.3,0.6,0.3,0.7,0c0.7-3.1-2.8-5.2-5.5-4.1c-3.6,1.4-4.3,5.5-4.8,8.9
					C100.8,165.5,101.1,165.5,101.2,165.3L101.2,165.3z"/>
			</g>
		</g>
	</g>
	<g>
		<g>
			<g>
				<path class="st1" d="M136.3,190.6c-1.1,0.2-1.8,1.4-1.5,2.5c0.4,1.2,1.8,1.7,2.9,1.2c3-1.1,1-5.8-1.9-5
					c-0.3,0.1-0.2,0.5,0.1,0.6c1,0,1.9,0.1,2.5,1.1c0.5,0.8,0.3,2.1-0.5,2.6c-0.7,0.4-1.7,0.3-2.3-0.3c-0.8-0.9-0.2-2.3,0.8-2.6
					C136.5,190.8,136.4,190.5,136.3,190.6L136.3,190.6z"/>
			</g>
		</g>
	</g>
	<g>
		<g>
			<g>
				<path class="st1" d="M141,193.1c-1.2-0.3-1.8,1.3-1.1,2.1c0.8,1,2.2,0.7,2.9-0.3c0.6-0.9,0.3-2.1-0.7-2.5
					c-0.7-0.3-2.4-0.2-2.4,0.8c0,0.2,0.2,0.3,0.3,0.2c0.2-0.1,0.3-0.3,0.5-0.4c0.2-0.1,0.5-0.2,0.8-0.2c0.6,0,1.2,0.4,1.2,1.1
					c0,0.7-0.7,1.4-1.4,1.4c-1.1,0-1.5-1.7-0.2-1.8C141.2,193.5,141.2,193.2,141,193.1L141,193.1z"/>
			</g>
		</g>
	</g>
	<g>
		<g>
			<g>
				<path class="st1" d="M144.8,195c-0.4,0.1-0.8,0.5-0.8,0.9c-0.1,0.5,0.4,0.8,0.8,0.8c0.4,0,0.8-0.2,1-0.6
					c0.1-0.4,0.1-0.9-0.3-1.2c-0.2-0.1-0.4,0.1-0.3,0.3c0.2,0.2,0.3,0.4,0.2,0.7c-0.1,0.2-0.3,0.4-0.6,0.3c-0.2,0-0.5-0.1-0.4-0.4
					c0.1-0.3,0.3-0.5,0.5-0.6C145.2,195.2,145,195,144.8,195L144.8,195z"/>
			</g>
		</g>
	</g>
	<g>
		<g>
			<g>
				<path class="st1" d="M96.7,167.9c-1.5-1.3-3.3,1.3-3.8,2.5c-0.6,1.4,0,3.8,1.9,3.6c0.3,0,0.4-0.5,0.1-0.5
					c-3.4-0.8-0.4-6.3,1.7-5.3C96.7,168.2,96.9,168,96.7,167.9L96.7,167.9z"/>
			</g>
		</g>
	</g>
	<g>
		<g>
			<g>
				<path class="st1" d="M110.5,186c1.9,2.9,5.4,5.1,8.9,4.9c3.2-0.2,6.4-2.5,7.1-5.7c0.1-0.4-0.6-0.6-0.7-0.2
					c-0.8,3.1-3.7,5.2-6.9,5.2c-3.4,0-6.1-2-8.1-4.5C110.7,185.6,110.4,185.8,110.5,186L110.5,186z"/>
			</g>
		</g>
	</g>
	<g>
		<g>
			<g>
				<path class="st1" d="M132.3,161c4.1-0.5,6.8,2.9,6.1,6.7c-0.1,0.4,0.5,0.6,0.6,0.2c1.4-4.2-2.7-8-6.8-7.3
					C132.1,160.6,132.1,161,132.3,161L132.3,161z"/>
			</g>
		</g>
	</g>
</g>
<g class="st0">
	<g>
		<g>
			<g>
				<path class="st1" d="M33.8,90.9c0.4-6.2,5.3-11.6,11-13.6c3-1,6.6-1.2,9.4,0.5c2.7,1.7,4.2,5.3,2.5,8.2c0.2,0.1,0.4,0.2,0.6,0.3
					c2.7-5,9.6-5.3,13.1-1.2c4,4.6,2.4,11.4-2.4,14.8c-0.1,0.1-0.2,0.3-0.1,0.5c3.7,5.4,2.9,13.4-2.1,17.7
					c-5.2,4.4-13.6,3.7-18.2-1.1c-0.2-0.2-0.6-0.1-0.6,0.2c-0.8,4.1-3.4,7.8-7.3,9.7c-3.5,1.6-7.7,1.7-11.2,0.2
					c-6.9-3.1-8.9-12.9-3.6-18.3c0.3-0.3,0-0.7-0.4-0.6c-3.5,0.7-6.9-1.7-8.3-4.8c-1.4-3-1.1-6.6,0.4-9.4c3.2-6.2,11.7-7.3,16.7-2.6
					c0.4,0.3,0.9-0.2,0.5-0.5c-4.1-3.9-11-4.3-15.4-0.5c-4.2,3.7-5.4,10.7-1.8,15.2c1.9,2.5,5,4,8.1,3.4c-0.1-0.2-0.2-0.4-0.4-0.6
					c-4.2,4.3-4.2,11.7-0.4,16.3c4.1,5,11.8,5.6,17.1,2.5c3.5-2,5.8-5.6,6.6-9.5c-0.2,0.1-0.4,0.1-0.6,0.2c3.8,4,10,5.3,15.2,3.5
					c5.2-1.9,8.4-6.8,8.7-12.2c0.2-3.1-0.6-6.2-2.4-8.7c0,0.2-0.1,0.3-0.1,0.5c5.1-3.7,6.9-11,2.5-15.9c-3.9-4.4-11.4-4-14.2,1.3
					c-0.2,0.4,0.4,0.7,0.6,0.3c1.6-2.7,0.7-6.2-1.5-8.3c-2.6-2.4-6.5-2.6-9.8-1.8c-6.5,1.7-12.2,7.8-12.5,14.6
					C33.3,91.1,33.8,91.1,33.8,90.9L33.8,90.9z"/>
			</g>
		</g>
	</g>
	<g>
		<g>
			<g>
				<path class="st1" d="M52.2,125.2c-1.3-0.6-3.6-0.6-4.3,0.8c-0.8,1.6,0.9,3.3,2.4,3.5c1.7,0.2,3.6-1,3.8-2.8
					c0.2-1.7-1.4-3.4-3.1-3.2c-0.4,0-0.4,0.6,0,0.6c1.5-0.1,2.8,1.3,2.5,2.8c-0.3,1.2-1.7,2-2.9,2c-1.4-0.1-3.3-2-1.6-3.1
					c0.9-0.6,2.1-0.2,3.1-0.1C52.3,125.6,52.4,125.3,52.2,125.2L52.2,125.2z"/>
			</g>
		</g>
	</g>
	<g>
		<g>
			<g>
				<path class="st1" d="M52.1,132.6c-1.1-0.1-1.5,1.6-1,2.4c0.7,1,2.3,0.9,3,0.1c0.4-0.5,0.6-1.2,0.5-1.8c0-0.5-0.2-1.2-0.8-1.2
					c-0.9,0-2.8,1.4-1.8,2.3c0.2,0.1,0.5,0,0.4-0.2c-0.1-0.4,0-0.7,0.3-1c0.3-0.2,0.8-0.7,1.1-0.5c0.4,0.2,0.3,0.9,0.2,1.3
					c-0.1,0.4-0.3,0.8-0.7,1.1c-0.6,0.4-1.7,0.4-2-0.4c-0.4-0.8,0.2-1.4,0.8-1.7C52.3,132.8,52.2,132.6,52.1,132.6L52.1,132.6z"/>
			</g>
		</g>
	</g>
	<g>
		<g>
			<g>
				<path class="st1" d="M71.5,101.5c0.3,0.8,0.9,1.6,1.2,2.4c0.5,1.1,0.9,2.2,1.1,3.4c0.5,2.4,0.3,4.5-0.1,6.9
					c-0.1,0.4,0.5,0.6,0.7,0.2c0.7-2.2,0.6-4.7,0.1-6.9c-0.4-2-1.2-4.8-2.8-6.2C71.6,101.3,71.4,101.4,71.5,101.5L71.5,101.5z"/>
			</g>
		</g>
	</g>
	<g>
		<g>
			<g>
				<path class="st1" d="M55.2,136.2c-1.3,0.1-1.1,2.4,0.2,2.3c0.6-0.1,1.2-0.7,1.1-1.3c0-0.8-1.1-1-1.7-0.8
					c-0.3,0.1-0.2,0.5,0.1,0.4c0.4-0.1,1.3-0.1,1.2,0.5c-0.1,0.4-0.5,0.7-0.8,0.7c-0.4,0-0.6-0.4-0.5-0.8c0-0.4,0.2-0.6,0.6-0.8
					C55.5,136.5,55.4,136.2,55.2,136.2L55.2,136.2z"/>
			</g>
		</g>
	</g>
</g>
<g class="st0">
	<g>
		<g>
			<path class="st1" d="M209.9,211.9c0.2,2.5,0.7,4.9,0.9,7.3c0,0.5,0.7,0.6,0.8,0.1c0.8-2.1,1.6-4.3,2.4-6.4
				c-0.1,0.1-0.3,0.2-0.4,0.3c5.3,0.1,10.7-0.6,15.8-2.1c4.8-1.4,9.6-3.5,13.6-6.5c3.7-2.8,6.6-6.8,7.1-11.5
				c0.4-4.2-1.6-8.3-4.8-10.9c-3.7-3.1-8.5-4.1-13.1-3.9c-5.2,0.1-10.4,1.2-15.2,2.8c-4.9,1.6-9.5,3.8-13.9,6.5
				c-3.8,2.4-7.7,5.4-9.4,9.8c-1.5,4.2-0.7,9.2,3.3,11.7c4,2.4,9,1.8,13.2,3.4c0.5,0.2,0.8-0.7,0.2-0.9c-3.5-1.3-7.3-1.2-10.8-2.3
				c-1.9-0.6-3.7-1.7-4.7-3.5c-1.1-1.8-1.3-4-1-6c0.7-4.5,4.1-7.8,7.7-10.2c3.9-2.7,8.2-4.9,12.6-6.5c4.4-1.7,9.1-2.9,13.8-3.5
				c4.7-0.6,9.8-0.6,14.1,1.7c3.6,1.9,6.6,5.4,7,9.6c0.6,4.7-2,9.1-5.4,12.2c-3.9,3.5-9,5.7-13.9,7.3c-5.3,1.7-10.8,2.5-16.3,2.3
				c-0.2,0-0.4,0.1-0.4,0.3c-0.8,2.1-1.6,4.3-2.4,6.4c0.3,0,0.6,0.1,0.8,0.1c-0.2-2.5-0.9-4.8-1.1-7.3
				C210.4,211.5,209.9,211.5,209.9,211.9L209.9,211.9z"/>
		</g>
	</g>
</g>
<g class="st0">
	<g>
		<g>
			<g>
				<path class="st1" d="M157.8,39.3c-0.6-9.4,4.5-18.5,12.5-23.4c4.2-2.5,9-3.9,13.9-4.1c4.7-0.2,10.4,0.3,14.2,3.5
					c3.6,3.1,5.5,8,6.8,12.5c1.4,5.2,1.7,10.8-0.7,15.7c-1.1,2.3-2.7,4.5-4.3,6.5c-1.6,2-3.5,3.8-5.7,5.1c-3.9,2.4-8.6,3.2-13.1,2.7
					c-5.5-0.6-10.4-3.5-14.7-6.9c-4.1-3.2-7.8-7.2-8.7-12.5c-0.1-0.3-0.6-0.3-0.6,0.1c0.5,4.9,3.6,8.8,7.2,11.9
					c3.9,3.3,8.5,6.4,13.4,7.7c4.5,1.2,9.5,1,13.9-0.7c4.9-1.9,8.4-5.8,11.3-10c3.2-4.7,4.5-9.9,3.7-15.5c-0.7-5-2.5-10.4-5.5-14.6
					c-3.1-4.2-7.8-5.8-12.8-6.3c-5.1-0.5-10.2,0.3-14.9,2.3c-10.2,4.3-17.3,14.8-16.3,26C157.5,39.5,157.8,39.6,157.8,39.3
					L157.8,39.3z"/>
			</g>
		</g>
	</g>
	<g>
		<g>
			<g>
				<path class="st1" d="M167.8,23.3c-3.2,3.3-5,8.4-4.9,12.9c0,2.1,0.5,4.1,1.3,6c0.8,1.8,2.1,3.9,3.8,4.9c0.4,0.2,0.7-0.3,0.5-0.6
					c-1.3-1.6-2.7-2.9-3.5-4.8c-0.8-1.9-1.2-3.9-1.2-5.9c0-2.2,0.4-4.3,1.2-6.4c0.8-2.2,2-4,3.2-6C168.2,23.3,168,23.1,167.8,23.3
					L167.8,23.3z"/>
			</g>
		</g>
	</g>
	<g>
		<g>
			<g>
				<path class="st1" d="M190.2,54.5c2.3,0,4.5-1.4,5.7-3.4c0.2-0.4-0.4-0.7-0.6-0.3c-1.2,1.9-2.9,2.9-5.1,3.4
					C189.9,54.1,190,54.5,190.2,54.5L190.2,54.5z"/>
			</g>
		</g>
	</g>
</g>
<g class="st0">
	<g>
		<g>
			<g>
				<path class="st1" d="M49,154.9c-9.4-4.1-19.9,3.4-25.6,10.4c-6,7.4-10.5,18.8-4,27.4c6.1,8,18.3,8.9,27.3,6.6
					c9.4-2.3,19.9-8,22.1-18.2c1.1-5.3,1.1-11.7-1.3-16.7c-2.1-4.4-7-7.7-11.9-6.3c-0.5,0.1-0.3,0.9,0.2,0.7c4.6-1.3,9.1,1.9,11,6
					c2,4.3,2.1,9.6,1.5,14.3c-0.7,5-3,9.1-7,12.3c-3.7,2.9-8.1,5.1-12.5,6.4c-8.6,2.7-19.7,2.7-26.8-3.5c-3.6-3.1-5.2-7.7-5-12.4
					c0.2-4.9,2.3-9.5,5-13.5c2.9-4.2,6.6-8,11.1-10.6c4.6-2.7,10.5-4.6,15.8-2.4C49.1,155.3,49.2,155,49,154.9L49,154.9z"/>
			</g>
		</g>
	</g>
	<g>
		<g>
			<g>
				<path class="st1" d="M49,155.1c2-2,4-4,6.3-5.7c-0.2-0.1-0.4-0.2-0.5-0.3c-0.2,3,0,6,0.5,9c0.1,0.5,0.8,0.3,0.7-0.2
					c-0.4-2.9-0.6-5.8-0.5-8.8c0-0.3-0.4-0.4-0.6-0.3c-2.2,1.8-4.4,3.7-6.1,5.9C48.6,155,48.9,155.3,49,155.1L49,155.1z"/>
			</g>
		</g>
	</g>
	<g>
		<g>
			<g>
				<path class="st1" d="M63.9,167.5c0.1,0.1,0.4,1.4,0.4,1.6c0.1,0.5,0.2,0.9,0.4,1.4c0.3,1.1,0.5,2.2,0.6,3.4
					c0.2,1.8,0,3.7-0.3,5.5c-0.8,3.7-2.6,6.9-5.1,9.7c-0.2,0.2,0.1,0.5,0.3,0.3c3-2.7,4.8-6.7,5.5-10.6c0.3-1.9,0.4-3.8,0.1-5.7
					c-0.2-1.2-0.5-2.4-0.8-3.6c-0.2-0.7-0.3-1.9-0.9-2.2c-0.1,0-0.1,0-0.2,0c-0.2,0.1-0.2,0.2-0.1,0.4c0,0.1,0.1,0.1,0.1,0.1
					c0,0,0.1,0,0.1,0C64,167.8,64,167.5,63.9,167.5L63.9,167.5z"/>
			</g>
		</g>
	</g>
</g>
<g class="st0">
	<g>
		<g>
			<g>
				<path class="st1" d="M259,136.7c-5.2-0.5-10.5-0.4-15.7-0.3c-1.8,0-3.7,0.2-5.2,1.4c-1.3,1-2,2.6-2.3,4.2
					c-0.4,1.9-0.5,3.8-0.5,5.7c0,2.6,0,5.1,0.1,7.7c0.1,2.6,0.3,5.3,0.6,7.9c0.2,1.9,0.5,3.9,1.6,5.5c2.1,2.9,6.1,3,9.4,2.7
					c4.9-0.5,9.7-1.4,14.5-2.2c5.1-0.9,10.2-1.9,15.3-3.2c1.7-0.4,3.1-1.2,3.7-2.9c0.7-2.1,0.6-4.6,0.7-6.8c0.1-2.9,0.2-5.8,0.1-8.7
					c0-1.5,0-3-0.1-4.5c0-1-0.1-1.9-0.8-2.7c-0.6-0.8-1.7-1.2-2.6-1.6c-1.1-0.5-2.3-1-3.5-1.3c-2.5-0.7-5.2-1.1-7.8-1.1
					c-0.6,0-0.6,1,0,0.9c4.2,0,8.9,0.8,12.5,3c1.1,0.7,1.2,1.7,1.3,2.9c0,1.2,0.1,2.3,0.1,3.5c0,2.3,0,4.5,0,6.8
					c-0.1,2.2-0.2,4.4-0.3,6.6c-0.1,1-0.1,2-0.5,2.8c-0.5,1.2-1.6,1.6-2.8,1.9c-4.3,1.1-8.6,1.9-12.9,2.8c-4.4,0.8-8.9,1.6-13.4,2.2
					c-3.3,0.5-7.5,1.4-10.5-0.5c-1.8-1.1-2.4-3.1-2.7-5.1c-0.3-2.1-0.4-4.3-0.6-6.4c-0.3-4.3-0.5-8.7-0.2-13.1
					c0.1-1.8,0.4-3.7,1.4-5.3c1.4-2.1,3.7-2.2,6-2.2c5.1-0.1,10.2,0.2,15.2-0.1C259.3,137.2,259.3,136.7,259,136.7L259,136.7z"/>
			</g>
		</g>
	</g>
	<g>
		<g>
			<g>
				<path class="st1" d="M259.2,136.9c0.9-1.1,1.2-2.9,1.7-4.2c0.6-1.7,1.2-3.4,1.7-5.1c-0.3,0-0.5,0.1-0.8,0.1
					c1.4,3.3,2.9,6.6,4.3,9.8c0.2,0.5,1,0.1,0.8-0.4c-1.4-3.3-2.9-6.5-4.4-9.8c-0.2-0.3-0.7-0.2-0.8,0.1c-0.5,1.6-1.1,3.3-1.6,4.9
					c-0.5,1.4-1.3,3.1-1.2,4.6C258.9,136.9,259.1,137,259.2,136.9L259.2,136.9z"/>
			</g>
		</g>
	</g>
	<g>
		<g>
			<g>
				<path class="st1" d="M244.4,149.3c4.6,0.2,9.4-0.2,14-0.4c4.6-0.2,9.3-0.3,14-0.8c0.4,0,0.4-0.6,0-0.6c-4.6,0.1-9.3,0.5-14,0.8
					c-4.6,0.2-9.4,0.2-14,0.7C244.2,149.1,244.2,149.3,244.4,149.3L244.4,149.3z"/>
			</g>
		</g>
	</g>
	<g>
		<g>
			<g>
				<path class="st1" d="M241.6,155c5-0.3,10-0.8,15-1.3c5-0.4,10-0.7,15-1.3c0.3,0,0.3-0.5,0-0.5c-5,0.3-10,0.9-15,1.4
					c-5,0.5-10,0.8-15,1.4C241.4,154.7,241.4,155,241.6,155L241.6,155z"/>
			</g>
		</g>
	</g>
	<g>
		<g>
			<g>
				<path class="st1" d="M246.9,159c4.2,0.1,8.6-0.3,12.8-0.5c2.1-0.1,4.2-0.2,6.3-0.2c1.9-0.1,4,0,5.9-0.6c0.3-0.1,0.2-0.5-0.1-0.5
					c-4.2,0.6-8.3,0.7-12.5,0.9c-4.1,0.2-8.3,0.1-12.3,0.6C246.7,158.7,246.7,159,246.9,159L246.9,159z"/>
			</g>
		</g>
	</g>
</g>
<g class="st0">
	<g>
		<g>
			<g>
				<path class="st1" d="M93.1,229.5c-3.5,3.5-5.5,8-6.2,12.9c-0.8,5.7,0.9,11.4,5.1,15.3c4.3,4,10,5.9,15.8,6.5
					c6.1,0.7,12.6,0.3,18.6-1c10.7-2.5,21.1-9.8,23.3-21.2c1-5.3-0.2-10.7-3.2-15.1c-3.3-4.7-8.4-7.6-14-8.6
					c-7.1-1.3-14.3,0.3-21,2.4c-3.4,1-6.7,2.1-9.8,3.9c-0.7,0.5-1.6,1-2.5,0.9c-1.1-0.1-2-0.8-2.5-1.7c-1-1.7-0.8-3.7-0.6-5.6
					c0-0.4-0.5-0.6-0.8-0.3c-3.3,3.1-4.3,8-2.5,12.1c0.2,0.5,1,0.1,0.8-0.5c-1.6-3.8-0.6-8.3,2.3-11c-0.3-0.1-0.5-0.2-0.8-0.3
					c-0.2,2.5-0.4,5.3,1.7,7.1c1.8,1.6,3.7,0.9,5.6-0.2c2.7-1.7,5.8-2.6,8.8-3.5c3-0.9,6-1.7,9.1-2.3c6.1-1.1,12.6-1,18.2,1.8
					c5,2.5,8.7,7.1,10,12.5c2.8,11.2-5.5,21.7-15.3,26.1c-5.4,2.4-11.4,3.4-17.2,3.6c-6.1,0.2-12.6-0.2-18.2-2.9
					c-5.9-2.9-10.1-8.1-10.4-14.8c-0.1-3.2,0.6-6.3,1.6-9.3c0.9-2.6,2.4-4.7,4.3-6.7C93.6,229.6,93.3,229.3,93.1,229.5L93.1,229.5z"
					/>
			</g>
		</g>
	</g>
	<g>
		<g>
			<g>
				<path class="st1" d="M101,234.4c3.5,0.1,7-0.2,10.5-0.4c3.5-0.2,7-0.4,10.5-0.7c3.4-0.3,6.8-0.6,10.2-1
					c3.4-0.4,6.9-0.6,10.2-1.4c0.2,0,0.1-0.3,0-0.3c-3.4,0.2-6.8,0.9-10.2,1.3c-3.5,0.4-7,0.8-10.5,1.1c-3.4,0.3-6.8,0.6-10.3,0.8
					c-3.5,0.2-7,0.2-10.5,0.5C100.8,234.3,100.8,234.4,101,234.4L101,234.4z"/>
			</g>
		</g>
	</g>
	<g>
		<g>
			<g>
				<path class="st1" d="M97.1,240.5c6.6-0.2,13.2-0.4,19.8-0.5c6.6-0.2,13.2-0.1,19.8-0.5c0.2,0,0.2-0.3,0-0.3
					c-6.6-0.1-13.2,0.3-19.8,0.4c-6.6,0.2-13.2,0.4-19.8,0.7C97,240.2,97,240.5,97.1,240.5L97.1,240.5z"/>
			</g>
		</g>
	</g>
	<g>
		<g>
			<g>
				<path class="st1" d="M103.1,247.8c7.7,0.5,15.6,0.5,23.3-0.5c0.2,0,0.2-0.4,0-0.3c-7.8,0.7-15.5,1-23.3,0.6
					C102.9,247.5,102.9,247.8,103.1,247.8L103.1,247.8z"/>
			</g>
		</g>
	</g>
</g>
<g class="st0">
	<g>
		<g>
			<g>
				<path class="st1" d="M164.5,255.4c2.2-2.1,3.8-4.8,6.3-6.6c0.2-0.1,0.2-0.4-0.1-0.5c-3.4-1.2-6.5-2.9-9.5-5c0,0.1,0,0.3,0,0.4
					c3.3-1.9,6.7-3.4,10.2-4.7c0.3-0.1,0.2-0.6-0.1-0.5c-3.6,1.3-7,2.9-10.4,4.8c-0.2,0.1-0.1,0.3,0,0.4c2.9,2.1,6.2,3.8,9.6,5.1
					c0-0.2,0-0.3-0.1-0.5c-1.3,0.9-2.3,2-3.4,3.2c-1,1.2-2.1,2.3-2.9,3.7C164.2,255.4,164.4,255.5,164.5,255.4L164.5,255.4z"/>
			</g>
		</g>
	</g>
	<g>
		<g>
			<g>
				<path class="st1" d="M211.4,262.4c-1.6-1.1-3.4-1.8-5.2-2.5c-0.9-0.4-1.9-0.8-2.8-1.1c-0.7-0.3-1.4-0.7-2.2-0.3
					c-0.9,0.4-1.6,1.4-2.3,2c-0.7,0.7-1.3,1.5-1.9,2.3c-1.4,1.9-2.5,3.9-3.8,5.8c0.1,0,0.3,0,0.4,0c-1.7-3.2-3.8-6.2-5.8-9.2
					c-0.3-0.5-0.5-0.6-1.1-0.4c-1.2,0.4-2.5,1.3-3.6,1.9c-2.5,1.3-5,2.7-7.5,4c0.1,0.1,0.2,0.1,0.4,0.2c0.1-2.7,0.5-5.4,1.1-8
					c0-0.1,0-0.3-0.2-0.3c-4.1-0.6-8.3-1-12.4-1.8c-0.3-0.1-0.4,0.4-0.1,0.5c4.1,0.8,8.3,1.2,12.4,1.8c-0.1-0.1-0.1-0.2-0.2-0.3
					c-0.6,2.7-1,5.4-1.1,8.1c0,0.2,0.2,0.3,0.4,0.2c2.2-1.2,4.4-2.3,6.6-3.5c1.1-0.6,2.2-1.2,3.3-1.8c0.5-0.3,1.2-0.9,1.7-0.4
					c0.2,0.2,0.4,0.6,0.6,0.8c1.8,2.7,3.6,5.5,5.2,8.3c0.1,0.2,0.3,0.2,0.4,0c2.1-3.2,4-7.1,7.1-9.5c0.7-0.5,1.2-0.6,1.9-0.3
					c0.3,0.1,0.7,0.3,1,0.4c0.8,0.3,1.6,0.6,2.5,1c1.7,0.7,3.4,1.4,5,2.2C211.4,262.7,211.5,262.5,211.4,262.4L211.4,262.4z"/>
			</g>
		</g>
	</g>
	<g>
		<g>
			<g>
				<path class="st1" d="M203.8,233.9c4.5,0.7,9.2-0.6,13.7-1.1c-0.1-0.1-0.2-0.3-0.2-0.4c-1.3,2.9-2.6,5.9-4.1,8.7
					c0,0.1-0.1,0.2,0,0.2c1.7,2.3,3.6,4.6,5.4,6.9c0-0.1,0.1-0.3,0.1-0.4c-2.5,1-5.2,1.6-7.9,2c-0.1,0-0.2,0.1-0.2,0.2
					c0.1,4.1,0.4,8.2,0.5,12.3c0,0.3,0.5,0.3,0.5,0c-0.1-3.5-0.3-7-0.4-10.5c0-0.4-0.1-0.9,0-1.2c0.1-0.5,0.1-0.4,0.6-0.5
					c0.8-0.1,1.6-0.3,2.4-0.5c1.6-0.4,3.1-0.8,4.6-1.4c0.2-0.1,0.2-0.3,0.1-0.4c-1-1.2-2-2.4-2.9-3.6c-0.4-0.6-0.9-1.1-1.3-1.7
					c-0.3-0.3-0.5-0.7-0.8-1c-0.3-0.4-0.2-0.5,0-0.9c1.4-2.6,2.6-5.3,3.8-8c0.1-0.2,0-0.4-0.2-0.4c-4.6,0.5-9,1.4-13.6,1.4
					C203.7,233.7,203.7,233.9,203.8,233.9L203.8,233.9z"/>
			</g>
		</g>
	</g>
	<g>
		<g>
			<g>
				<path class="st1" d="M171.8,238.7c0.2-2.5,0.2-5,0.3-7.5c-0.1,0.1-0.2,0.1-0.4,0.2c1.9,1.2,3.8,2.5,5.7,3.7c0.1,0.1,0.2,0,0.3,0
					c2.4-2.3,4.9-4.6,7.3-7c-0.1,0-0.2,0-0.3,0c1.5,1.8,2.9,3.7,4.3,5.5c0,0.1,0.2,0.1,0.2,0.1c3.2-1.3,5.7-3.5,8.6-5.2
					c0.4-0.2,0.8-0.6,1.3-0.7c0.4-0.1,0.4,0,0.7,0.3c0.5,0.6,1,1.3,1.4,2c0.8,1.2,1.5,2.5,2.3,3.7c0.2,0.3,0.6,0,0.4-0.2
					c-1.5-2.1-2.6-4.6-4.4-6.5c-0.1-0.1-0.2-0.1-0.3,0c-2.5,1.2-4.6,3-7,4.5c-0.6,0.3-1.1,0.7-1.7,1c-0.4,0.2-1,0.7-1.4,0.5
					c-0.4-0.1-0.7-0.7-0.9-1c-1.1-1.4-2.2-2.8-3.3-4.3c-0.1-0.1-0.3-0.2-0.4,0c-2,1.9-4,3.8-6,5.7c-0.5,0.4-0.9,1.1-1.5,0.9
					c-0.6-0.2-1.2-0.8-1.7-1.1c-1.2-0.8-2.4-1.5-3.6-2.3c-0.2-0.1-0.4,0-0.4,0.2c0,2.5-0.2,5-0.1,7.5
					C171.5,238.9,171.8,238.9,171.8,238.7L171.8,238.7z"/>
			</g>
		</g>
	</g>
</g>
<g class="st0">
	<g>
		<g>
			<g>
				<path class="st1" d="M53,218c0.8,2.7,2.4,5.5,5.2,6.5c1.8,0.6,4,0.5,5.9,0.5c2.2,0,4.3-0.3,6.4-0.7c-0.2-0.2-0.3-0.4-0.5-0.6
					c-5,7.2-2.6,17.3,5.2,21.3c0.1-0.2,0.2-0.5,0.3-0.7c-4.4-1.3-9.1,0.6-12.4,3.7c-3.7,3.5-5.7,8.4-7.5,13.1c0.2,0,0.5,0,0.7,0
					c-1.8-4.3-7.2-4.7-11.2-4.5c-5.8,0.2-11.6,1.8-16.7,4.5c0.2,0.2,0.3,0.4,0.5,0.6c3.3-4.2,1.1-10-1.8-13.8
					c-3.3-4.4-7.9-7.7-13-9.5c0,0.3-0.1,0.5-0.1,0.8c3.9-0.4,7.2-3.2,8.7-6.8c1.9-4.5,0.9-9.5-1-13.8c-0.2,0.1-0.4,0.3-0.7,0.4
					c2.3,3.6,6.6,5.4,10.8,4.3c4.8-1.3,6.8-5.5,8.3-9.8c-0.2,0-0.5-0.1-0.7-0.1c0.3,2.9,2.2,6.3,5.1,7.3c2.9,0.9,6.3-0.9,8.8-2.2
					c0.4-0.2,0-0.9-0.4-0.7c-2.2,1.2-5,2.5-7.5,2.2c-3-0.4-5-3.9-5.2-6.7c0-0.4-0.6-0.5-0.7-0.1c-1.4,3.9-3.2,7.9-7.5,9.2
					c-3.9,1.2-8-0.4-10.2-3.8c-0.3-0.4-0.8-0.1-0.7,0.4c1.7,3.9,2.6,8.6,1.1,12.7c-1.3,3.5-4.3,6.4-8.1,6.8c-0.4,0-0.5,0.6-0.1,0.8
					c4.7,1.6,8.8,4.5,12,8.3c2.9,3.6,5.8,9.5,2.5,13.7c-0.3,0.3,0.1,0.8,0.5,0.6c4.7-2.5,9.8-4,15.1-4.4c3.8-0.3,10-0.4,11.7,3.9
					c0.1,0.4,0.6,0.4,0.7,0c1.7-4.3,3.5-8.8,6.8-12.2c3.1-3.2,7.7-5.3,12.2-4c0.4,0.1,0.7-0.5,0.3-0.7c-7.4-3.9-9.7-13.4-4.9-20.2
					c0.2-0.3-0.1-0.7-0.5-0.6c-1.9,0.4-3.8,0.6-5.7,0.7c-1.8,0.1-3.9,0.1-5.7-0.3c-2.9-0.7-4.4-3.5-5.6-6
					C53.3,217.6,53,217.8,53,218L53,218z"/>
			</g>
		</g>
	</g>
	<g>
		<g>
			<g>
				<path class="st1" d="M52.3,224.3c1,4.2,5.5,6.1,9.3,4.3c0.4-0.2,0.1-0.9-0.4-0.6c-3.5,1.7-7.5-0.1-8.6-3.7
					C52.5,224,52.2,224.1,52.3,224.3L52.3,224.3z"/>
			</g>
		</g>
	</g>
	<g>
		<g>
			<g>
				<path class="st1" d="M21.8,239c2.8,1.5,5.2,3.3,7.1,5.9c1.8,2.5,2.7,5.3,3.3,8.3c0.1,0.3,0.6,0.3,0.6-0.1
					c-0.4-6-5-12.4-10.8-14.4C21.7,238.6,21.6,238.9,21.8,239L21.8,239z"/>
			</g>
		</g>
	</g>
	<g>
		<g>
			<g>
				<path class="st1" d="M43,255.3c3.7-1.3,7.8-0.8,11.1,1.3c0.1,0.1,0.3,0,0.4-0.2c0.8-3,2.9-5.4,5.9-6.5c0.3-0.1,0.2-0.5-0.1-0.4
					c-3.1,1.2-5.4,3.7-6.3,6.9c0.1-0.1,0.3-0.1,0.4-0.2c-3.4-2.1-7.6-2.6-11.4-1.1C42.8,255.1,42.9,255.4,43,255.3L43,255.3z"/>
			</g>
		</g>
	</g>
</g>
<g class="st0">
	<g>
		<g>
			<g>
				<path class="st1" d="M262.5,74.5c-11.3-0.8-21.6,7.2-23.5,18.4c-0.5,2.9-0.4,6,0.7,8.8c1,2.5,2.8,4.7,4.9,6.4
					c3.8,3.2,8.7,5,13.7,5.4c5.6,0.4,11.3-1.1,15.7-4.7c-0.2,0-0.4,0-0.5-0.1c0.8,1.7,1.5,3.4,2.2,5.2c0.1,0.3,0.5,0.3,0.6,0
					c0.6-1.8,0.6-3.7,0.9-5.6c0.3-1.9,1.3-3.5,2-5.2c1.2-3,1.4-6.3,0.8-9.5c-1.1-6.6-5.1-13.2-10.7-16.9c-3-2-6.6-3.1-10.1-2.2
					c-0.4,0.1-0.2,0.8,0.2,0.7c8.7-2.1,16.1,7.1,18.8,14.3c1.4,3.9,2,8.1,0.9,12.1c-0.6,2-1.8,3.8-2.3,5.9c-0.5,2.1-0.4,4.3-1.1,6.4
					c0.2,0,0.4,0,0.6,0c-0.7-1.8-1.4-3.6-2.2-5.3c-0.1-0.2-0.4-0.2-0.5-0.1c-7.5,5.9-18.8,5.8-26.6,0.5c-2.2-1.5-4.3-3.4-5.6-5.7
					c-1.5-2.5-2-5.4-1.8-8.3c0.4-5.6,3.1-11,7.3-14.7c4.3-3.7,10-5.7,15.7-5.4C262.7,74.8,262.7,74.5,262.5,74.5L262.5,74.5z"/>
			</g>
		</g>
	</g>
	<g>
		<g>
			<g>
				<path class="st1" d="M248.9,87.5c3.7,0.3,7.5,0.2,11.3,0.2c3.7,0,7.5,0,11.3-0.1c0.3,0,0.3-0.4,0-0.4c-3.8,0-7.5,0.1-11.3,0.1
					c-3.7,0-7.5-0.1-11.3,0.1C248.7,87.3,248.7,87.5,248.9,87.5L248.9,87.5z"/>
			</g>
		</g>
	</g>
	<g>
		<g>
			<g>
				<path class="st1" d="M247.8,93.6c5.6,0.3,11.5,0.5,17.1-0.2c0.2,0,0.2-0.3,0-0.3c-2.9,0-5.7,0.2-8.6,0.3c-2.9,0.1-5.7,0-8.6,0
					C247.6,93.4,247.6,93.6,247.8,93.6L247.8,93.6z"/>
			</g>
		</g>
	</g>
	<g>
		<g>
			<g>
				<path class="st1" d="M250.3,100.5c4-0.3,8-0.5,12-0.6c4-0.1,8,0,12,0c0.3,0,0.3-0.5,0-0.5c-7.9-0.4-16,0.1-23.9,0.8
					C250.1,100.2,250.1,100.5,250.3,100.5L250.3,100.5z"/>
			</g>
		</g>
	</g>
</g>
<g class="st0">
	<g>
		<g>
			<g>
				<path class="st1" d="M182.6,166.8c-5.1,0.6-10.3,0.1-15.2-1.6c-4.5-1.6-8.8-4.2-10.8-8.7c-1-2.2-1.5-4.7-1.9-7.1
					c-0.5-2.7-0.8-5.4-1.2-8.1c-0.6-5.2-0.9-10.4-0.9-15.6c-0.1-10.5,1-21.1,3.1-31.4c0.5-2.5,1.1-4.9,1.8-7.4
					c0.7-2.6,1.3-5.3,2.4-7.7c2.1-4.5,7.4-6.3,11.8-7.3c5-1.2,10.1-1.4,15.2-1.3c5.3,0.1,10.7,0.3,16,0.8c4.8,0.5,10.2,0.9,14.2,3.8
					c3.9,2.8,5.8,7.7,7.2,12.1c3.1,9.6,3.5,19.8,2.8,29.7c-0.3,5-0.9,10-1.5,15c-0.6,5.1-1.1,10.3-2.6,15.3
					c-2.4,8.3-8.6,14.9-16.7,18c-3.8,1.5-7.8,2.1-11.9,1.7c-1.7-0.2-3.6-0.5-4.6,1.3c-0.5,0.9-0.7,2.1-1,3.2c-0.4,1.3-0.8,2.7-1.2,4
					c-0.7,2.5-1.5,5-2.2,7.5c0.3,0,0.6,0.1,1,0.1c0-5.7-1.3-11.3-3.8-16.4c-0.3-0.6-1.1-0.1-0.8,0.5c2.5,5,3.7,10.4,3.6,15.9
					c0,0.6,0.8,0.7,1,0.1c0.8-2.8,1.6-5.6,2.4-8.4c0.4-1.3,0.7-2.5,1.1-3.8c0.4-1.5,0.7-3.2,2.6-3.2c2.1,0,4.2,0.4,6.4,0.2
					c2-0.2,4-0.6,6-1.2c7.7-2.5,14.5-8.2,17.7-15.7c2-4.8,2.7-10,3.3-15.1c0.7-5.2,1.3-10.4,1.8-15.6c0.8-10.3,0.8-20.9-1.9-31
					c-1.2-4.5-2.8-9.3-5.9-12.9c-3.1-3.6-7.6-4.9-12.1-5.6c-5.5-0.8-11-1.1-16.5-1.3c-5.2-0.2-10.4-0.3-15.5,0.4
					c-4.7,0.6-10,1.8-13.8,4.8c-1.7,1.4-2.8,3.1-3.5,5.2c-0.9,2.5-1.6,5.2-2.2,7.8c-2.7,10.5-4.2,21.3-4.5,32.1
					c-0.3,10.7,0.3,21.7,2.6,32.1c1,4.6,3.1,8.5,7.1,11.1c4.1,2.7,9.1,4,13.9,4.4c2.5,0.2,4.9,0,7.4-0.4
					C183,167.3,182.9,166.7,182.6,166.8L182.6,166.8z"/>
			</g>
		</g>
	</g>
</g>
<g class="st0">
	<g>
		<g>
			<g>
				<path class="st1" d="M263.2,224.3c-7.9-6.6-19.2-2.7-26.3,2.9c-3.7,2.9-6.4,6.8-7.1,11.5c-0.7,4.4,0.3,8.9,2.5,12.7
					c4.6,7.9,14.4,12.1,23.3,11.5c4.6-0.3,9-1.9,12.4-5.1c3.5-3.4,5.7-8.1,6.6-12.9c1-5.1,0.9-11.2-2-15.8
					c-2.9-4.5-8.2-5.8-13.2-6.4c-0.4-0.1-0.5,0.7-0.1,0.7c4.2,0.9,8.8,1.5,11.7,5c3,3.5,3.5,8.6,3.1,13.1c-0.4,4.7-1.9,9.5-4.8,13.3
					c-2.7,3.7-6.6,6-11.1,6.9c-8.3,1.6-17.6-1.4-23.2-7.8c-5.8-6.7-6.5-17.1-0.3-23.7c6.8-7.3,19.4-12.2,28.1-5.5
					C263.1,224.9,263.4,224.5,263.2,224.3L263.2,224.3z"/>
			</g>
		</g>
	</g>
	<g>
		<g>
			<g>
				<path class="st1" d="M230.3,257.7c0.4-0.9-0.4-1.8-1.2-2.1c-0.9-0.3-1.9,0.1-2.4,0.9c-1.6,2.4,0.9,5.3,3.1,6.1
					c2.4,0.9,5.6-0.8,4.5-3.6c-0.4-1-4.1-5-4.9-2.5c-0.1,0.3,0.2,0.5,0.4,0.3c1.3-0.6,2.9,1.1,3.5,2.2c1.1,2-1.1,3.5-2.9,2.9
					c-1.4-0.4-2.8-1.6-3.3-3c-0.3-0.8-0.2-1.6,0.3-2.3c1-1.2,2.5-0.4,2.5,1C230,257.8,230.2,257.9,230.3,257.7L230.3,257.7z"/>
			</g>
		</g>
	</g>
	<g>
		<g>
			<g>
				<path class="st1" d="M227.1,264.5c-1.2-0.1-2.1,1-2.1,2.1c0,1.2,1.1,1.9,2.2,1.7c1.1-0.1,2-1,1.9-2.2c-0.1-1.3-1.6-2.4-2.9-2
					c-0.4,0.1-0.2,0.7,0.2,0.6c0.9-0.2,2,0.5,2.1,1.5c0.1,0.8-0.7,1.4-1.4,1.5c-2,0.2-1.8-2.8,0-2.8
					C227.3,264.9,227.3,264.5,227.1,264.5L227.1,264.5z"/>
			</g>
		</g>
	</g>
</g>
</svg>
