<svg id="Layer_1" data-name="Layer 1" xmlns="http://www.w3.org/2000/svg" viewBox="0 0 70 70"><defs><style>.cls-1{fill:#00478a;}.cls-2{fill:#003261;}.cls-3{fill:#eff7ff;}.cls-4{fill:#fff;}.cls-5{fill:#005aae;}.cls-6{fill:#e2f3f7;}</style></defs><path class="cls-1" d="M67.8,26A34,34,0,1,0,26,67.8Z"/><path class="cls-2" d="M67.8,26,55.9,14.1,14.1,55.9,26,67.8A34,34,0,0,0,69,35,33.69,33.69,0,0,0,67.8,26Z"/><path class="cls-3" d="M35,5.4,27.6,35,35,64.6A29.6,29.6,0,0,0,35,5.4Z"/><path class="cls-4" d="M5.4,35A29.6,29.6,0,0,0,35,64.6V5.4A29.66,29.66,0,0,0,5.4,35Z"/><path class="cls-5" d="M35,8.4,28.3,35,35,61.6A26.6,26.6,0,0,0,35,8.4Z"/><path class="cls-1" d="M8.4,35A26.59,26.59,0,0,0,35,61.6V8.4A26.59,26.59,0,0,0,8.4,35Z"/><path class="cls-2" d="M35,15.36H24.24A4.22,4.22,0,0,0,20,19.58V47.7l15-3,7-14.08Z"/><path class="cls-1" d="M35,15.36H50V44.77H35Z"/><path class="cls-4" d="M30.54,32.73H26.37l-.83,1.93h-1.6l3.76-8.35h1.53L33,34.66H31.38ZM30,31.51l-1.58-3.65-1.56,3.65Z"/><path class="cls-6" d="M44.91,33.35v1.31H37.79v-1l4.91-6H37.87V26.31h6.89v1l-4.92,6Z"/><path class="cls-4" d="M33.44,30.62h3.12v1.24H33.44Z"/><path class="cls-4" d="M35,30.62h1.56v1.24H35Z"/><path class="cls-1" d="M24.23,51.9a4.19,4.19,0,1,1,0-8.38H35L36.3,48,35,51.9Z"/><path class="cls-2" d="M35,51.9H50V50.64l-.76-2.93L50,44.78V43.52H35Z"/><path class="cls-4" d="M24.23,44.78a2.93,2.93,0,1,0,0,5.86H35l1.67-2.93L35,44.78Z"/><path class="cls-6" d="M35,44.78H50v5.86H35Z"/><path class="cls-2" d="M45.24,54.15l-2.76-2.3-2.75,2.3V46.43h5.51Z"/></svg>