<?xml version="1.0" encoding="utf-8"?>
<!-- Generator: Adobe Illustrator 22.1.0, SVG Export Plug-In . SVG Version: 6.00 Build 0)  -->
<svg version="1.1" id="Layer_1" xmlns="http://www.w3.org/2000/svg" xmlns:xlink="http://www.w3.org/1999/xlink" x="0px" y="0px"
	 viewBox="0 0 70 70" style="enable-background:new 0 0 70 70;" xml:space="preserve">
<style type="text/css">
	.st0{display:none;}
	.st1{display:inline;fill:#76429A;}
	.st2{display:inline;fill:#5D377A;}
	.st3{display:inline;fill:#CEB4D7;}
	.st4{display:inline;fill:#FFFFFF;}
	.st5{display:inline;fill:#8758A4;}
	.st6{display:inline;fill:#E7DAEC;}
	.st7{display:inline;}
	.st8{fill:#FFFFFF;}
	.st9{fill:#4AA09C;}
	.st10{fill:#2D5B55;}
	.st11{fill:#B6E2EB;}
	.st12{fill:#66C7C7;}
	.st13{fill:#71CAC8;}
	.st14{fill:#EDF0F1;}
	.st15{fill:#E2F3F7;}
</style>
<g class="st0">
	<path class="st1" d="M68.7,26c-4-14.6-17.3-25.3-33.1-25.3c-19,0-34.4,15.4-34.4,34.4c0,15.8,10.7,29.2,25.3,33.1L68.7,26z"/>
	<path class="st2" d="M68.7,26l-12-12L14.5,56.2l12,12c2.9,0.8,5.9,1.2,9.1,1.2c19,0,34.4-15.4,34.4-34.4
		C69.9,31.9,69.5,28.9,68.7,26z"/>
	<path class="st3" d="M35.6,5.2l-7.5,29.9l7.5,29.9c16.5,0,29.9-13.4,29.9-29.9S52.1,5.2,35.6,5.2z"/>
	<path class="st4" d="M5.7,35.1c0,16.5,13.4,29.9,29.9,29.9V5.2C19.1,5.2,5.7,18.6,5.7,35.1z"/>
	<path class="st1" d="M35.6,8.2l-6.7,26.9L35.6,62c14.9,0,26.9-12,26.9-26.9S50.4,8.2,35.6,8.2z"/>
	<path class="st5" d="M8.7,35.1c0,14.9,12,26.9,26.9,26.9V8.2C20.7,8.2,8.7,20.2,8.7,35.1z"/>
	<polygon class="st6" points="40.1,56 35.6,56 32.6,51.7 35.6,47 40.1,47 	"/>
	<rect x="31.1" y="47" class="st4" width="4.5" height="9"/>
	<path class="st6" d="M35.6,14.2l-3,4.5l3,4.5c1.6,0,3,1.3,3,3c0,0.9-0.4,1.5-0.6,1.8l-2.3,2.9l-1.5,6.6l1.5,6.6h4.5v-4.4l4.9-6.1
		c1.7-2.1,2.6-4.7,2.6-7.4C47.5,19.5,42.2,14.2,35.6,14.2z"/>
	<g class="st7">
		<polygon class="st8" points="31.1,36.5 31.1,44 35.6,44 35.6,30.9 		"/>
		<path class="st8" d="M23.6,26.1h9c0-1.6,1.3-3,3-3v-9C29,14.2,23.6,19.5,23.6,26.1z"/>
	</g>
</g>
<g>
	<path class="st9" d="M68.7,26.6C64.7,12,51.4,1.3,35.5,1.3c-19,0-34.4,15.4-34.4,34.4c0,15.9,10.7,29.2,25.3,33.2L68.7,26.6z"/>
	<path class="st10" d="M68.7,26.6L56.7,14.6L14.3,56.9l12.1,12.1c2.9,0.8,6,1.2,9.1,1.2c19,0,34.4-15.4,34.4-34.4
		C69.9,32.6,69.5,29.5,68.7,26.6z"/>
	<path class="st11" d="M35.5,5.8L28,35.7l7.5,29.9c16.5,0,29.9-13.4,29.9-29.9S52,5.8,35.5,5.8z"/>
	<path class="st8" d="M5.6,35.7c0,16.5,13.4,29.9,29.9,29.9V5.8C19,5.8,5.6,19.2,5.6,35.7z"/>
	<path class="st9" d="M35.5,8.8l-6.7,27l6.7,27c14.9,0,27-12.1,27-27S50.4,8.8,35.5,8.8z"/>
	<path class="st12" d="M8.5,35.7c0,14.9,12.1,27,27,27V8.8C20.6,8.8,8.5,20.8,8.5,35.7z"/>
	<g>
		<path class="st13" d="M23.6,22v31.7l7-6.1V15.9h-0.9l-0.5,0.4h-4.6l0-0.4l-0.8,0l-7,6.1L23.6,22L23.6,22z"/>
		<path class="st8" d="M17.8,22h5l6.4-5.8h-5L17.8,22z"/>
		<path class="st10" d="M25.4,20.5l-0.8,0L22.8,22h-5l1.8-1.6l-0.9,0L16.9,22v31.7h6.7l1.8-1.6L25.4,20.5L25.4,20.5z"/>
		<path class="st14" d="M34.4,22v31.7l7-6.1V15.9v0h-0.9L40,16.3h-4.6l0-0.4l-0.8,0l-7,6.1L34.4,22L34.4,22L34.4,22L34.4,22z"/>
		<polygon class="st15" points="41.4,15.9 41.4,47.7 35.4,53.2 35.4,19.8 		"/>
		<path class="st8" d="M28.7,22h5l6.4-5.8h-5L28.7,22z"/>
		<path class="st10" d="M36.2,20.5l-0.8,0L33.7,22h-5l1.8-1.6l-0.9,0L27.7,22v31.7h6.7l1.8-1.6L36.2,20.5L36.2,20.5z"/>
		<path class="st13" d="M49.2,14.8L44,22.5l8.2,30.7l5.2-7.7L49.2,14.8L48.3,15l-0.4,0.5l-4.4,1.2l-0.1-0.4l-0.7,0.2l-5.2,7.7
			l6.5-1.7L49.2,14.8z"/>
		<path class="st8" d="M38.4,24l4.8-1.3l4.7-7.2l-4.8,1.3L38.4,24L38.4,24L38.4,24z"/>
		<path class="st10" d="M45.3,20.5l-0.8,0.2l-1.3,2L38.4,24l1.3-2l-0.9,0.2l-1.4,2.1l8.2,30.7l6.5-1.7l1.3-2L45.3,20.5L45.3,20.5z"
			/>
		<g>
			<path class="st8" d="M50.7,23.3l-0.4-1.6l-2.9,4.7l0.4,1.6L50.7,23.3L50.7,23.3z"/>
			<path class="st8" d="M49.1,22.4l-0.2-1l-2,3.2l0.2,1L49.1,22.4L49.1,22.4L49.1,22.4z"/>
		</g>
	</g>
</g>
</svg>
