<?xml version="1.0" encoding="utf-8"?>
<!-- Generator: Adobe Illustrator 23.0.1, SVG Export Plug-In . SVG Version: 6.00 Build 0)  -->
<svg version="1.1" id="Layer_1" xmlns="http://www.w3.org/2000/svg" xmlns:xlink="http://www.w3.org/1999/xlink" x="0px" y="0px"
	 viewBox="0 0 70 70" style="enable-background:new 0 0 70 70;" xml:space="preserve">
<style type="text/css">
	.st0{fill:#5852A2;}
	.st1{fill:#4A3B96;}
	.st2{fill:#8A8AC2;}
	.st3{fill:#FFFFFF;}
	.st4{fill:#554C9E;}
	.st5{fill:#D8D6EB;}
</style>
<g>
	<path class="st0" d="M69.4,26.3C65.3,11.5,51.8,0.6,35.7,0.6C16.4,0.6,0.8,16.2,0.8,35.5c0,16.1,10.9,29.6,25.7,33.7L69.4,26.3z"/>
	<path class="st1" d="M69.4,26.3L57.1,14L14.2,57l12.2,12.2c2.9,0.8,6,1.2,9.2,1.2c19.3,0,34.9-15.6,34.9-34.9
		C70.6,32.3,70.2,29.2,69.4,26.3z"/>
	<path class="st2" d="M35.7,5.1l-7.6,30.4l7.6,30.4C52.5,65.9,66,52.3,66,35.5S52.5,5.1,35.7,5.1z"/>
	<path class="st3" d="M5.3,35.5c0,16.8,13.6,30.4,30.4,30.4V5.1C18.9,5.1,5.3,18.7,5.3,35.5z"/>
	<path class="st4" d="M35.7,8.2l-6.8,27.3l6.8,27.3C50.8,62.8,63,50.6,63,35.5S50.8,8.2,35.7,8.2z"/>
	<path class="st0" d="M8.4,35.5c0,15.1,12.2,27.3,27.3,27.3V8.2C20.6,8.2,8.4,20.4,8.4,35.5z"/>
	<ellipse class="st3" cx="35.7" cy="49" rx="2.3" ry="2.1"/>
	<ellipse class="st5" cx="39.6" cy="53.8" rx="1.7" ry="1.5"/>
	<path class="st3" d="M58,32.3c0-2.5-2.2-4.6-5-4.6c-0.2,0-0.4,0-0.5,0c0.1-0.4,0.2-0.8,0.2-1.2c0-2.5-2.2-4.6-5-4.6
		c-0.2,0-0.4,0-0.5,0c-1.1-1.6-3.5-2.8-6.4-2.8c-1.8,0-3.4,0.4-4.7,1.2c-1.3-1.1-3.3-1.8-5.5-1.8c-3.3,0-6.1,1.5-6.8,3.6
		c-0.5-0.1-1-0.2-1.5-0.2c-2.8,0-5,2-5,4.6c0,0.4,0.1,0.8,0.2,1.2C15,28,13,29.9,13,32.3c0,2.5,2.2,4.6,5,4.6c0,0,0.1,0,0.1,0
		C18,37.1,18,37.4,18,37.7c0,2.5,2.2,4.6,5,4.6c0.3,0,0.5,0,0.7-0.1c0.5,2.2,3.4,3.8,6.9,3.8c1.8,0,3.4-0.4,4.7-1.2
		c1.3,1.1,3.3,1.8,5.5,1.8c3.8,0,7-2,7-4.6c0,0,0-0.1,0-0.1c0.6,0.2,1.2,0.3,1.9,0.3c2.8,0,5-2,5-4.6c0-0.3,0-0.7-0.1-1
		C56.5,36.1,58,34.4,58,32.3z"/>
	<path class="st5" d="M53,27.7c-0.2,0-0.4,0-0.5,0c0.1-0.4,0.2-0.8,0.2-1.2c0-2.5-2.2-4.6-5-4.6c-0.2,0-0.4,0-0.5,0
		c-1.1-1.6-3.5-2.8-6.4-2.8c-1.8,0-3.4,0.4-4.7,1.2c-0.2-0.2-0.4-0.3-0.6-0.4V45c1.3,1,3.1,1.6,5.2,1.6c3.8,0,7-2,7-4.6
		c0,0,0-0.1,0-0.1c0.6,0.2,1.2,0.3,1.9,0.3c2.8,0,5-2,5-4.6c0-0.3,0-0.7-0.1-1c2.1-0.6,3.6-2.3,3.6-4.4C58,29.8,55.8,27.7,53,27.7z"
		/>
	<path class="st5" d="M37.9,49c0-1.1-1-2.1-2.3-2.1V51C36.9,51,37.9,50.1,37.9,49z"/>
</g>
</svg>
