<?xml version="1.0" encoding="utf-8"?>
<!-- Generator: Adobe Illustrator 23.0.1, SVG Export Plug-In . SVG Version: 6.00 Build 0)  -->
<svg version="1.1" id="Layer_1" xmlns="http://www.w3.org/2000/svg" xmlns:xlink="http://www.w3.org/1999/xlink" x="0px" y="0px"
	 viewBox="0 0 70 70" style="enable-background:new 0 0 70 70;" xml:space="preserve">
<style type="text/css">
	.st0{fill:#EFF7FC;}
	.st1{enable-background:new    ;}
	.st2{fill:#493C97;}
</style>
<g>
	<g>
		<g>
			<path class="st0" d="M42.9,57.8c-2.2,0-4.2-0.8-5.7-2.3s-2.3-3.5-2.3-5.7V25.6c0-3.4,0.9-6.7,2.6-9.7c1.7-3,4.1-5.3,7.1-7.1
				c3-1.7,6.2-2.6,9.7-2.6H55c1.5,0,2.9,0.6,4,1.6c1.1,1.1,1.6,2.5,1.6,4v4.8c0,1.5-0.6,2.9-1.6,4c-1.1,1.1-2.5,1.6-4,1.6h-0.8
				c-0.9,0-1.6,0.3-2.3,1s-1,1.4-1,2.3v3.2h4.9c2.2,0,4.1,0.8,5.7,2.3c1.5,1.5,2.3,3.5,2.3,5.7v12.9c0,2.2-0.8,4.1-2.3,5.7
				c-1.5,1.5-3.5,2.4-5.7,2.4L42.9,57.8L42.9,57.8z M13.8,57.8c-2.2,0-4.2-0.8-5.7-2.3S5.8,52,5.8,49.8V25.6c0-3.4,0.9-6.7,2.6-9.7
				s4.1-5.3,7.1-7.1c3-1.7,6.2-2.6,9.7-2.6H26c1.5,0,2.9,0.6,4,1.6c1.1,1.1,1.6,2.5,1.6,4v4.8c0,1.5-0.6,2.9-1.6,4
				c-1.1,1.1-2.4,1.6-4,1.6h-0.8c-0.9,0-1.6,0.3-2.3,1c-0.7,0.7-1,1.4-1,2.3v3.2h4.9c2.2,0,4.1,0.8,5.7,2.3c1.5,1.5,2.3,3.5,2.3,5.7
				v12.9c0,2.2-0.8,4.1-2.3,5.7c-1.5,1.5-3.5,2.4-5.7,2.4L13.8,57.8L13.8,57.8z"/>
			<path class="st0" d="M30.2,33.4c0.9,0.9,1.4,2.1,1.4,3.4v12.9c0,1.3-0.5,2.5-1.4,3.4s-2.1,1.4-3.4,1.4h-13
				c-1.3,0-2.5-0.5-3.4-1.4S9,51.1,9,49.7V25.6c0-2.9,0.7-5.6,2.2-8.1c1.4-2.5,3.4-4.4,5.9-5.9c2.5-1.4,5.2-2.2,8.1-2.2H26
				c0.7,0,1.2,0.2,1.7,0.7s0.7,1,0.7,1.7v4.8c0,0.7-0.2,1.2-0.7,1.7S26.7,19,26,19h-0.8c-1.7,0-3.3,0.6-4.5,1.9
				c-1.3,1.3-1.9,2.8-1.9,4.5V32h8.1C28.1,32,29.2,32.5,30.2,33.4z M59.2,33.4c0.9,0.9,1.4,2.1,1.4,3.4v12.9c0,1.3-0.5,2.5-1.4,3.4
				s-2.1,1.4-3.4,1.4H42.9c-1.3,0-2.5-0.5-3.4-1.4s-1.4-2.1-1.4-3.4V25.6c0-2.9,0.7-5.6,2.2-8.1c1.4-2.5,3.4-4.4,5.9-5.9
				c2.5-1.4,5.2-2.2,8.1-2.2H55c0.7,0,1.2,0.2,1.7,0.7s0.7,1,0.7,1.7v4.8c0,0.7-0.2,1.2-0.7,1.7S55.7,19,55,19h-0.8
				c-1.7,0-3.3,0.6-4.5,1.9c-1.3,1.3-1.9,2.8-1.9,4.5V32h8.1C57.1,32,58.2,32.5,59.2,33.4z"/>
		</g>
	</g>
	<g>
		<g class="st1">
			<path class="st2" d="M29.8,33.8c0.9,0.9,1.4,2.1,1.4,3.4v12.9c0,1.3-0.5,2.5-1.4,3.4s-2.1,1.4-3.4,1.4H13.5
				c-1.3,0-2.5-0.5-3.4-1.4s-1.4-2.1-1.4-3.4V26c0-2.9,0.7-5.6,2.2-8.1c1.4-2.5,3.4-4.4,5.9-5.9c2.5-1.4,5.2-2.2,8.1-2.2h0.8
				c0.7,0,1.2,0.2,1.7,0.7s0.7,1,0.7,1.7V17c0,0.7-0.2,1.2-0.7,1.7s-1,0.7-1.7,0.7h-0.8c-1.7,0-3.3,0.6-4.5,1.9
				c-1.3,1.3-1.9,2.8-1.9,4.5v6.4h8.1C27.7,32.4,28.8,32.9,29.8,33.8z M58.8,33.8c0.9,0.9,1.4,2.1,1.4,3.4v12.9
				c0,1.3-0.5,2.5-1.4,3.4s-2.1,1.4-3.4,1.4H42.5c-1.3,0-2.5-0.5-3.4-1.4s-1.4-2.1-1.4-3.4V26c0-2.9,0.7-5.6,2.2-8.1
				c1.4-2.5,3.4-4.4,5.9-5.9c2.5-1.4,5.2-2.2,8.1-2.2h0.8c0.7,0,1.2,0.2,1.7,0.7s0.7,1,0.7,1.7V17c0,0.7-0.2,1.2-0.7,1.7
				s-1,0.7-1.7,0.7h-0.8c-1.7,0-3.3,0.6-4.5,1.9c-1.3,1.3-1.9,2.8-1.9,4.5v6.4h8.1C56.7,32.4,57.9,32.9,58.8,33.8z"/>
		</g>
	</g>
</g>
</svg>
