<?xml version="1.0" encoding="utf-8"?>
<!-- Generator: Adobe Illustrator 22.1.0, SVG Export Plug-In . SVG Version: 6.00 Build 0)  -->
<svg version="1.1" id="Layer_1" xmlns="http://www.w3.org/2000/svg" xmlns:xlink="http://www.w3.org/1999/xlink" x="0px" y="0px"
	 viewBox="0 0 70 70" style="enable-background:new 0 0 70 70;" xml:space="preserve">
<style type="text/css">
	.st0{fill:#76429A;}
	.st1{fill:#5D377A;}
	.st2{fill:#CEB4D7;}
	.st3{fill:#FFFFFF;}
	.st4{fill:#8758A4;}
	.st5{fill:#E7DAEC;}
</style>
<g>
	<path class="st0" d="M68.7,26c-4-14.6-17.3-25.3-33.1-25.3c-19,0-34.4,15.4-34.4,34.4c0,15.8,10.7,29.2,25.3,33.1L68.7,26z"/>
	<path class="st1" d="M68.7,26l-12-12L14.5,56.2l12,12c2.9,0.8,5.9,1.2,9.1,1.2c19,0,34.4-15.4,34.4-34.4
		C69.9,31.9,69.5,28.9,68.7,26z"/>
	<path class="st2" d="M35.6,5.2l-7.5,29.9l7.5,29.9c16.5,0,29.9-13.4,29.9-29.9S52.1,5.2,35.6,5.2z"/>
	<path class="st3" d="M5.7,35.1c0,16.5,13.4,29.9,29.9,29.9V5.2C19.1,5.2,5.7,18.6,5.7,35.1z"/>
	<path class="st0" d="M35.6,8.2l-6.7,26.9L35.6,62c14.9,0,26.9-12,26.9-26.9S50.4,8.2,35.6,8.2z"/>
	<path class="st4" d="M8.7,35.1c0,14.9,12,26.9,26.9,26.9V8.2C20.7,8.2,8.7,20.2,8.7,35.1z"/>
	<polygon class="st5" points="40.1,56 35.6,56 32.6,51.7 35.6,47 40.1,47 	"/>
	<rect x="31.1" y="47" class="st3" width="4.5" height="9"/>
	<path class="st5" d="M35.6,14.2l-3,4.5l3,4.5c1.6,0,3,1.3,3,3c0,0.9-0.4,1.5-0.6,1.8l-2.3,2.9l-1.5,6.6l1.5,6.6h4.5v-4.4l4.9-6.1
		c1.7-2.1,2.6-4.7,2.6-7.4C47.5,19.5,42.2,14.2,35.6,14.2z"/>
	<g>
		<polygon class="st3" points="31.1,36.5 31.1,44 35.6,44 35.6,30.9 		"/>
		<path class="st3" d="M23.6,26.1h9c0-1.6,1.3-3,3-3v-9C29,14.2,23.6,19.5,23.6,26.1z"/>
	</g>
</g>
</svg>
